<svg width="496" height="320" viewBox="0 0 496 320" fill="none" xmlns="http://www.w3.org/2000/svg">
<path d="M388 160C388 124.56 374.56 90.4392 350.39 64.5202C326.22 38.6012 293.12 22.8132 257.766 20.341L254.278 70.2192C277.006 71.8085 298.284 81.9579 313.822 98.6201C329.36 115.282 338 137.217 338 160H388Z" fill="#7C3AED"/>
<path d="M252.886 20.0853C227.531 19.1999 202.411 25.2213 180.212 37.5059C158.014 49.7905 139.571 67.8766 126.854 89.8308L170.121 114.891C178.296 100.778 190.152 89.151 204.422 81.2538C218.693 73.3565 234.841 69.4856 251.141 70.0548L252.886 20.0853Z" fill="#3B82F6"/>
<path d="M124.479 94.1015C114.546 112.72 108.95 133.344 108.111 154.43C107.271 175.517 111.21 196.52 119.631 215.87L165.477 195.916C160.063 183.477 157.532 169.975 158.071 156.42C158.611 142.864 162.208 129.606 168.594 117.637L124.479 94.1015Z" fill="#10B981"/>
<path d="M121.659 220.316C130.751 239.36 144.03 256.102 160.504 269.291C176.978 282.48 196.221 291.773 216.793 296.477L227.938 247.736C214.713 244.711 202.343 238.737 191.753 230.258C181.162 221.78 172.626 211.017 166.781 198.774L121.659 220.316Z" fill="#F59E0B"/>
<path d="M221.575 297.483C249.298 302.812 277.984 299.635 303.87 288.369L283.916 242.523C267.276 249.765 248.834 251.808 231.012 248.382L221.575 297.483Z" fill="#EF4444"/>
<path d="M308.316 286.341C326.08 277.86 341.857 265.728 354.615 250.737L316.539 218.331C308.337 227.968 298.195 235.767 286.774 241.219L308.316 286.341Z" fill="#EC4899"/>
<path d="M357.717 246.961C366.435 235.961 373.45 223.713 378.525 210.627L331.909 192.546C328.646 200.958 324.137 208.832 318.532 215.903L357.717 246.961Z" fill="#06B6D4"/>
<path d="M380.212 206.041C384.828 192.787 387.425 178.913 387.914 164.886L337.945 163.141C337.63 172.158 335.961 181.077 332.994 189.598L380.212 206.041Z" fill="#8B5CF6"/>
</svg>
