<svg width="12" height="12" viewBox="0 0 12 12" fill="none" xmlns="http://www.w3.org/2000/svg">
<path d="M4 7C5.65685 7 7 5.65685 7 4C7 2.34315 5.65685 1 4 1C2.34315 1 1 2.34315 1 4C1 5.65685 2.34315 7 4 7Z" stroke="#F59E0B" stroke-linecap="round" stroke-linejoin="round"/>
<path d="M9.04492 5.185C9.51758 5.36121 9.93817 5.65376 10.2678 6.0356C10.5974 6.41743 10.8255 6.87622 10.9308 7.36953C11.0361 7.86284 11.0154 8.37475 10.8704 8.85792C10.7255 9.34109 10.4611 9.77991 10.1016 10.1338C9.74218 10.4877 9.29928 10.7452 8.81391 10.8826C8.32854 11.02 7.81637 11.0327 7.32476 10.9197C6.83315 10.8067 6.37798 10.5715 6.00134 10.236C5.62469 9.90045 5.33874 9.47534 5.16992 9" stroke="#F59E0B" stroke-linecap="round" stroke-linejoin="round"/>
<path d="M3.5 3H4V5" stroke="#F59E0B" stroke-linecap="round" stroke-linejoin="round"/>
<path d="M8.35492 6.94L8.70492 7.295L7.29492 8.705" stroke="#F59E0B" stroke-linecap="round" stroke-linejoin="round"/>
</svg>
