<svg width="13" height="13" viewBox="0 0 13 13" fill="none" xmlns="http://www.w3.org/2000/svg">
<path d="M8.66634 11.375V10.2917C8.66634 9.71703 8.43807 9.16593 8.03174 8.7596C7.62541 8.35327 7.07431 8.125 6.49967 8.125H3.24967C2.67504 8.125 2.12394 8.35327 1.71761 8.7596C1.31128 9.16593 1.08301 9.71703 1.08301 10.2917V11.375" stroke="#60A5FA" stroke-width="1.08333" stroke-linecap="round" stroke-linejoin="round"/>
<path d="M4.87467 5.95833C6.07129 5.95833 7.04134 4.98828 7.04134 3.79167C7.04134 2.59505 6.07129 1.625 4.87467 1.625C3.67806 1.625 2.70801 2.59505 2.70801 3.79167C2.70801 4.98828 3.67806 5.95833 4.87467 5.95833Z" stroke="#60A5FA" stroke-width="1.08333" stroke-linecap="round" stroke-linejoin="round"/>
<path d="M11.917 11.375V10.2917C11.9166 9.81159 11.7569 9.34524 11.4627 8.96582C11.1686 8.58641 10.7568 8.31542 10.292 8.1954" stroke="#60A5FA" stroke-width="1.08333" stroke-linecap="round" stroke-linejoin="round"/>
<path d="M8.66699 1.6954C9.13305 1.81473 9.54614 2.08578 9.84113 2.46582C10.1361 2.84586 10.2962 3.31327 10.2962 3.79436C10.2962 4.27545 10.1361 4.74286 9.84113 5.1229C9.54614 5.50294 9.13305 5.77399 8.66699 5.89332" stroke="#60A5FA" stroke-width="1.08333" stroke-linecap="round" stroke-linejoin="round"/>
</svg>
