<svg width="12" height="12" viewBox="0 0 12 12" fill="none" xmlns="http://www.w3.org/2000/svg">
<g clip-path="url(#clip0_52_4082)">
<path d="M9 2H3C2.44772 2 2 2.44772 2 3V9C2 9.55228 2.44772 10 3 10H9C9.55228 10 10 9.55228 10 9V3C10 2.44772 9.55228 2 9 2Z" stroke="#F59E0B" stroke-linecap="round" stroke-linejoin="round"/>
<path d="M7 4.5H5C4.72386 4.5 4.5 4.72386 4.5 5V7C4.5 7.27614 4.72386 7.5 5 7.5H7C7.27614 7.5 7.5 7.27614 7.5 7V5C7.5 4.72386 7.27614 4.5 7 4.5Z" stroke="#F59E0B" stroke-linecap="round" stroke-linejoin="round"/>
<path d="M7.5 1V2" stroke="#F59E0B" stroke-linecap="round" stroke-linejoin="round"/>
<path d="M7.5 10V11" stroke="#F59E0B" stroke-linecap="round" stroke-linejoin="round"/>
<path d="M1 7.5H2" stroke="#F59E0B" stroke-linecap="round" stroke-linejoin="round"/>
<path d="M1 4.5H2" stroke="#F59E0B" stroke-linecap="round" stroke-linejoin="round"/>
<path d="M10 7.5H11" stroke="#F59E0B" stroke-linecap="round" stroke-linejoin="round"/>
<path d="M10 4.5H11" stroke="#F59E0B" stroke-linecap="round" stroke-linejoin="round"/>
<path d="M4.5 1V2" stroke="#F59E0B" stroke-linecap="round" stroke-linejoin="round"/>
<path d="M4.5 10V11" stroke="#F59E0B" stroke-linecap="round" stroke-linejoin="round"/>
</g>
<defs>
<clipPath id="clip0_52_4082">
<rect width="12" height="12" fill="white"/>
</clipPath>
</defs>
</svg>
