<svg width="14" height="14" viewBox="0 0 14 14" fill="none" xmlns="http://www.w3.org/2000/svg">
<g clip-path="url(#clip0_52_4131)">
<path d="M12.2497 9.33337H9.91634C9.59418 9.33337 9.33301 9.59454 9.33301 9.91671V12.25C9.33301 12.5722 9.59418 12.8334 9.91634 12.8334H12.2497C12.5718 12.8334 12.833 12.5722 12.833 12.25V9.91671C12.833 9.59454 12.5718 9.33337 12.2497 9.33337Z" stroke="#60A5FA" stroke-width="1.16667" stroke-linecap="round" stroke-linejoin="round"/>
<path d="M4.08366 9.33337H1.75033C1.42816 9.33337 1.16699 9.59454 1.16699 9.91671V12.25C1.16699 12.5722 1.42816 12.8334 1.75033 12.8334H4.08366C4.40582 12.8334 4.66699 12.5722 4.66699 12.25V9.91671C4.66699 9.59454 4.40582 9.33337 4.08366 9.33337Z" stroke="#60A5FA" stroke-width="1.16667" stroke-linecap="round" stroke-linejoin="round"/>
<path d="M8.16667 1.16663H5.83333C5.51117 1.16663 5.25 1.42779 5.25 1.74996V4.08329C5.25 4.40546 5.51117 4.66663 5.83333 4.66663H8.16667C8.48883 4.66663 8.75 4.40546 8.75 4.08329V1.74996C8.75 1.42779 8.48883 1.16663 8.16667 1.16663Z" stroke="#60A5FA" stroke-width="1.16667" stroke-linecap="round" stroke-linejoin="round"/>
<path d="M2.91699 9.33333V7.58333C2.91699 7.42862 2.97845 7.28025 3.08785 7.17085C3.19724 7.06146 3.34562 7 3.50033 7H10.5003C10.655 7 10.8034 7.06146 10.9128 7.17085C11.0222 7.28025 11.0837 7.42862 11.0837 7.58333V9.33333" stroke="#60A5FA" stroke-width="1.16667" stroke-linecap="round" stroke-linejoin="round"/>
<path d="M7 6.99996V4.66663" stroke="#60A5FA" stroke-width="1.16667" stroke-linecap="round" stroke-linejoin="round"/>
</g>
<defs>
<clipPath id="clip0_52_4131">
<rect width="14" height="14" fill="white"/>
</clipPath>
</defs>
</svg>
