<svg width="13" height="13" viewBox="0 0 13 13" fill="none" xmlns="http://www.w3.org/2000/svg">
<g clip-path="url(#clip0_52_3017)">
<path d="M11.3753 8.66666H9.20866C8.9095 8.66666 8.66699 8.90917 8.66699 9.20832V11.375C8.66699 11.6741 8.9095 11.9167 9.20866 11.9167H11.3753C11.6745 11.9167 11.917 11.6741 11.917 11.375V9.20832C11.917 8.90917 11.6745 8.66666 11.3753 8.66666Z" stroke="#A855F7" stroke-width="1.08333" stroke-linecap="round" stroke-linejoin="round"/>
<path d="M3.79134 8.66666H1.62467C1.32552 8.66666 1.08301 8.90917 1.08301 9.20832V11.375C1.08301 11.6741 1.32552 11.9167 1.62467 11.9167H3.79134C4.0905 11.9167 4.33301 11.6741 4.33301 11.375V9.20832C4.33301 8.90917 4.0905 8.66666 3.79134 8.66666Z" stroke="#A855F7" stroke-width="1.08333" stroke-linecap="round" stroke-linejoin="round"/>
<path d="M7.58333 1.08334H5.41667C5.11751 1.08334 4.875 1.32586 4.875 1.62501V3.79168C4.875 4.09083 5.11751 4.33334 5.41667 4.33334H7.58333C7.88249 4.33334 8.125 4.09083 8.125 3.79168V1.62501C8.125 1.32586 7.88249 1.08334 7.58333 1.08334Z" stroke="#A855F7" stroke-width="1.08333" stroke-linecap="round" stroke-linejoin="round"/>
<path d="M2.70801 8.66667V7.04167C2.70801 6.89801 2.76508 6.76023 2.86666 6.65865C2.96824 6.55707 3.10602 6.5 3.24967 6.5H9.74967C9.89333 6.5 10.0311 6.55707 10.1327 6.65865C10.2343 6.76023 10.2913 6.89801 10.2913 7.04167V8.66667" stroke="#A855F7" stroke-width="1.08333" stroke-linecap="round" stroke-linejoin="round"/>
<path d="M6.5 6.50001V4.33334" stroke="#A855F7" stroke-width="1.08333" stroke-linecap="round" stroke-linejoin="round"/>
</g>
<defs>
<clipPath id="clip0_52_3017">
<rect width="13" height="13" fill="white"/>
</clipPath>
</defs>
</svg>
