<svg width="14" height="14" viewBox="0 0 14 14" fill="none" xmlns="http://www.w3.org/2000/svg">
<g clip-path="url(#clip0_52_4414)">
<path d="M2.62467 9.62494C1.74967 10.3599 1.45801 12.5416 1.45801 12.5416C1.45801 12.5416 3.63967 12.2499 4.37467 11.3749C4.78884 10.8849 4.78301 10.1324 4.32217 9.67744C4.09544 9.46103 3.79676 9.33598 3.48347 9.32629C3.17018 9.3166 2.86435 9.42296 2.62467 9.62494Z" stroke="white" stroke-width="1.16667" stroke-linecap="round" stroke-linejoin="round"/>
<path d="M7 8.74998L5.25 6.99998C5.56042 6.19465 5.95129 5.42269 6.41667 4.69582C7.09636 3.60906 8.04278 2.71426 9.16592 2.09654C10.2891 1.47881 11.5516 1.1587 12.8333 1.16665C12.8333 2.75332 12.3783 5.54165 9.33333 7.58331C8.59652 8.04924 7.81483 8.44008 7 8.74998Z" stroke="white" stroke-width="1.16667" stroke-linecap="round" stroke-linejoin="round"/>
<path d="M5.24967 7.00005H2.33301C2.33301 7.00005 2.65384 5.23255 3.49967 4.66672C4.44467 4.03672 6.41634 4.66672 6.41634 4.66672" stroke="white" stroke-width="1.16667" stroke-linecap="round" stroke-linejoin="round"/>
<path d="M7 8.74992V11.6666C7 11.6666 8.7675 11.3458 9.33333 10.4999C9.96333 9.55492 9.33333 7.58325 9.33333 7.58325" stroke="white" stroke-width="1.16667" stroke-linecap="round" stroke-linejoin="round"/>
</g>
<defs>
<clipPath id="clip0_52_4414">
<rect width="14" height="14" fill="white"/>
</clipPath>
</defs>
</svg>
