<svg width="14" height="14" viewBox="0 0 14 14" fill="none" xmlns="http://www.w3.org/2000/svg">
<g clip-path="url(#clip0_52_4421)">
<path d="M11.667 1.16675H2.33366C1.68933 1.16675 1.16699 1.68908 1.16699 2.33341V4.66675C1.16699 5.31108 1.68933 5.83341 2.33366 5.83341H11.667C12.3113 5.83341 12.8337 5.31108 12.8337 4.66675V2.33341C12.8337 1.68908 12.3113 1.16675 11.667 1.16675Z" stroke="#A5B4FC" stroke-width="1.16667" stroke-linecap="round" stroke-linejoin="round"/>
<path d="M11.667 8.16675H2.33366C1.68933 8.16675 1.16699 8.68908 1.16699 9.33341V11.6667C1.16699 12.3111 1.68933 12.8334 2.33366 12.8334H11.667C12.3113 12.8334 12.8337 12.3111 12.8337 11.6667V9.33341C12.8337 8.68908 12.3113 8.16675 11.667 8.16675Z" stroke="#A5B4FC" stroke-width="1.16667" stroke-linecap="round" stroke-linejoin="round"/>
<path d="M3.5 3.5H3.50583" stroke="#A5B4FC" stroke-width="1.16667" stroke-linecap="round" stroke-linejoin="round"/>
<path d="M3.5 10.5H3.50583" stroke="#A5B4FC" stroke-width="1.16667" stroke-linecap="round" stroke-linejoin="round"/>
</g>
<defs>
<clipPath id="clip0_52_4421">
<rect width="14" height="14" fill="white"/>
</clipPath>
</defs>
</svg>
