<svg width="14" height="14" viewBox="0 0 14 14" fill="none" xmlns="http://www.w3.org/2000/svg">
<g clip-path="url(#clip0_52_4166)">
<path d="M11.0833 6.41663H2.91667C2.27233 6.41663 1.75 6.93896 1.75 7.58329V11.6666C1.75 12.311 2.27233 12.8333 2.91667 12.8333H11.0833C11.7277 12.8333 12.25 12.311 12.25 11.6666V7.58329C12.25 6.93896 11.7277 6.41663 11.0833 6.41663Z" stroke="#22D3EE" stroke-width="1.16667" stroke-linecap="round" stroke-linejoin="round"/>
<path d="M4.08301 6.41663V4.0833C4.08228 3.36 4.35034 2.66222 4.83514 2.12544C5.31995 1.58866 5.98691 1.25116 6.70655 1.17847C7.4262 1.10578 8.14718 1.30308 8.72954 1.73207C9.31189 2.16106 9.71407 2.79113 9.85801 3.49997" stroke="#22D3EE" stroke-width="1.16667" stroke-linecap="round" stroke-linejoin="round"/>
</g>
<defs>
<clipPath id="clip0_52_4166">
<rect width="14" height="14" fill="white"/>
</clipPath>
</defs>
</svg>
