<svg width="13" height="13" viewBox="0 0 13 13" fill="none" xmlns="http://www.w3.org/2000/svg">
<g clip-path="url(#clip0_52_3044)">
<path d="M10.8337 7.04165C10.8337 9.74998 8.93783 11.1041 6.68449 11.8896C6.5665 11.9295 6.43833 11.9276 6.32158 11.8841C4.06283 11.1041 2.16699 9.74998 2.16699 7.04165V3.24998C2.16699 3.10632 2.22406 2.96855 2.32564 2.86696C2.42722 2.76538 2.565 2.70831 2.70866 2.70831C3.79199 2.70831 5.14616 2.05831 6.08866 1.23498C6.20341 1.13694 6.34939 1.08307 6.50033 1.08307C6.65126 1.08307 6.79724 1.13694 6.91199 1.23498C7.85991 2.06373 9.20866 2.70831 10.292 2.70831C10.4357 2.70831 10.5734 2.76538 10.675 2.86696C10.7766 2.96855 10.8337 3.10632 10.8337 3.24998V7.04165Z" stroke="#F59E0B" stroke-width="1.08333" stroke-linecap="round" stroke-linejoin="round"/>
</g>
<defs>
<clipPath id="clip0_52_3044">
<rect width="13" height="13" fill="white"/>
</clipPath>
</defs>
</svg>
