<svg width="13" height="13" viewBox="0 0 13 13" fill="none" xmlns="http://www.w3.org/2000/svg">
<path d="M5.95843 10.8333C5.0073 10.8362 4.08982 10.4815 3.38796 9.83958C2.68611 9.19766 2.25114 8.3154 2.16933 7.36779C2.08752 6.42018 2.36485 5.47642 2.94631 4.72371C3.52776 3.971 4.37088 3.46432 5.30843 3.30415C8.39593 2.70831 9.20843 2.42665 10.2918 1.08331C10.8334 2.16665 11.3751 3.34748 11.3751 5.41665C11.3751 8.39581 8.78593 10.8333 5.95843 10.8333Z" stroke="#22D3EE" stroke-width="1.08333" stroke-linecap="round" stroke-linejoin="round"/>
<path d="M1.08301 11.375C1.08301 9.75 2.08509 8.47167 3.83467 8.125C5.14551 7.865 6.49967 7.04167 7.04134 6.5" stroke="#22D3EE" stroke-width="1.08333" stroke-linecap="round" stroke-linejoin="round"/>
</svg>
