<svg width="14" height="14" viewBox="0 0 14 14" fill="none" xmlns="http://www.w3.org/2000/svg">
<g clip-path="url(#clip0_52_4159)">
<path d="M1.20248 6.79697C1.15386 6.92793 1.15386 7.072 1.20248 7.20297C1.67597 8.35105 2.47969 9.33269 3.51176 10.0234C4.54383 10.7142 5.75775 11.0829 6.99964 11.0829C8.24153 11.0829 9.45546 10.7142 10.4875 10.0234C11.5196 9.33269 12.3233 8.35105 12.7968 7.20297C12.8454 7.072 12.8454 6.92793 12.7968 6.79697C12.3233 5.64888 11.5196 4.66724 10.4875 3.97649C9.45546 3.28574 8.24153 2.91699 6.99964 2.91699C5.75775 2.91699 4.54383 3.28574 3.51176 3.97649C2.47969 4.66724 1.67597 5.64888 1.20248 6.79697Z" stroke="#F59E0B" stroke-width="1.16667" stroke-linecap="round" stroke-linejoin="round"/>
<path d="M7 8.75C7.9665 8.75 8.75 7.9665 8.75 7C8.75 6.0335 7.9665 5.25 7 5.25C6.0335 5.25 5.25 6.0335 5.25 7C5.25 7.9665 6.0335 8.75 7 8.75Z" stroke="#F59E0B" stroke-width="1.16667" stroke-linecap="round" stroke-linejoin="round"/>
</g>
<defs>
<clipPath id="clip0_52_4159">
<rect width="14" height="14" fill="white"/>
</clipPath>
</defs>
</svg>
