<svg width="16" height="16" viewBox="0 0 16 16" fill="none" xmlns="http://www.w3.org/2000/svg">
<path d="M5.99992 11.3333H4.66659C3.78253 11.3333 2.93468 10.9821 2.30956 10.357C1.68444 9.73186 1.33325 8.88401 1.33325 7.99996C1.33325 7.1159 1.68444 6.26806 2.30956 5.64294C2.93468 5.01782 3.78253 4.66663 4.66659 4.66663H5.99992" stroke="#EC4899" stroke-width="1.33333" stroke-linecap="round" stroke-linejoin="round"/>
<path d="M10 4.66663H11.3333C12.2174 4.66663 13.0652 5.01782 13.6904 5.64294C14.3155 6.26806 14.6667 7.1159 14.6667 7.99996C14.6667 8.88401 14.3155 9.73186 13.6904 10.357C13.0652 10.9821 12.2174 11.3333 11.3333 11.3333H10" stroke="#EC4899" stroke-width="1.33333" stroke-linecap="round" stroke-linejoin="round"/>
<path d="M5.33325 8H10.6666" stroke="#EC4899" stroke-width="1.33333" stroke-linecap="round" stroke-linejoin="round"/>
</svg>
