<svg width="20" height="20" viewBox="0 0 20 20" fill="none" xmlns="http://www.w3.org/2000/svg">
<path d="M7.50008 14.1666H5.83341C4.72835 14.1666 3.66854 13.7277 2.88714 12.9463C2.10573 12.1649 1.66675 11.105 1.66675 9.99998C1.66675 8.89491 2.10573 7.8351 2.88714 7.0537C3.66854 6.2723 4.72835 5.83331 5.83341 5.83331H7.50008" stroke="#06B6D4" stroke-width="1.66667" stroke-linecap="round" stroke-linejoin="round"/>
<path d="M12.5 5.83331H14.1667C15.2717 5.83331 16.3315 6.2723 17.1129 7.0537C17.8943 7.8351 18.3333 8.89491 18.3333 9.99998C18.3333 11.105 17.8943 12.1649 17.1129 12.9463C16.3315 13.7277 15.2717 14.1666 14.1667 14.1666H12.5" stroke="#06B6D4" stroke-width="1.66667" stroke-linecap="round" stroke-linejoin="round"/>
<path d="M6.66675 10H13.3334" stroke="#06B6D4" stroke-width="1.66667" stroke-linecap="round" stroke-linejoin="round"/>
</svg>
