<svg width="16" height="16" viewBox="0 0 16 16" fill="none" xmlns="http://www.w3.org/2000/svg">
<g clip-path="url(#clip0_19_514)">
<path d="M14.0001 10.6666H11.3334C10.9652 10.6666 10.6667 10.9651 10.6667 11.3333V14C10.6667 14.3681 10.9652 14.6666 11.3334 14.6666H14.0001C14.3683 14.6666 14.6667 14.3681 14.6667 14V11.3333C14.6667 10.9651 14.3683 10.6666 14.0001 10.6666Z" stroke="#60A5FA" stroke-width="1.33333" stroke-linecap="round" stroke-linejoin="round"/>
<path d="M4.66659 10.6666H1.99992C1.63173 10.6666 1.33325 10.9651 1.33325 11.3333V14C1.33325 14.3681 1.63173 14.6666 1.99992 14.6666H4.66659C5.03478 14.6666 5.33325 14.3681 5.33325 14V11.3333C5.33325 10.9651 5.03478 10.6666 4.66659 10.6666Z" stroke="#60A5FA" stroke-width="1.33333" stroke-linecap="round" stroke-linejoin="round"/>
<path d="M9.33333 1.33337H6.66667C6.29848 1.33337 6 1.63185 6 2.00004V4.66671C6 5.0349 6.29848 5.33337 6.66667 5.33337H9.33333C9.70152 5.33337 10 5.0349 10 4.66671V2.00004C10 1.63185 9.70152 1.33337 9.33333 1.33337Z" stroke="#60A5FA" stroke-width="1.33333" stroke-linecap="round" stroke-linejoin="round"/>
<path d="M3.33325 10.6667V8.66667C3.33325 8.48986 3.40349 8.32029 3.52851 8.19526C3.65354 8.07024 3.82311 8 3.99992 8H11.9999C12.1767 8 12.3463 8.07024 12.4713 8.19526C12.5963 8.32029 12.6666 8.48986 12.6666 8.66667V10.6667" stroke="#60A5FA" stroke-width="1.33333" stroke-linecap="round" stroke-linejoin="round"/>
<path d="M8 8.00004V5.33337" stroke="#60A5FA" stroke-width="1.33333" stroke-linecap="round" stroke-linejoin="round"/>
</g>
<defs>
<clipPath id="clip0_19_514">
<rect width="16" height="16" fill="white"/>
</clipPath>
</defs>
</svg>
