<svg width="13" height="13" viewBox="0 0 13 13" fill="none" xmlns="http://www.w3.org/2000/svg">
<g clip-path="url(#clip0_6_41)">
<path d="M6.5 3.79166V11.375" stroke="#C4B5FD" stroke-width="1.08333" stroke-linecap="round" stroke-linejoin="round"/>
<path d="M1.62504 9.75C1.48138 9.75 1.34361 9.69293 1.24202 9.59135C1.14044 9.48977 1.08337 9.35199 1.08337 9.20833V2.16667C1.08337 2.02301 1.14044 1.88523 1.24202 1.78365C1.34361 1.68207 1.48138 1.625 1.62504 1.625H4.33337C4.90801 1.625 5.45911 1.85327 5.86544 2.2596C6.27177 2.66593 6.50004 3.21703 6.50004 3.79167C6.50004 3.21703 6.72831 2.66593 7.13464 2.2596C7.54097 1.85327 8.09207 1.625 8.66671 1.625H11.375C11.5187 1.625 11.6565 1.68207 11.7581 1.78365C11.8596 1.88523 11.9167 2.02301 11.9167 2.16667V9.20833C11.9167 9.35199 11.8596 9.48977 11.7581 9.59135C11.6565 9.69293 11.5187 9.75 11.375 9.75H8.12504C7.69406 9.75 7.28074 9.9212 6.97599 10.226C6.67125 10.5307 6.50004 10.944 6.50004 11.375C6.50004 10.944 6.32884 10.5307 6.02409 10.226C5.71934 9.9212 5.30602 9.75 4.87504 9.75H1.62504Z" stroke="#C4B5FD" stroke-width="1.08333" stroke-linecap="round" stroke-linejoin="round"/>
</g>
<defs>
<clipPath id="clip0_6_41">
<rect width="13" height="13" fill="white"/>
</clipPath>
</defs>
</svg>
