<svg width="13" height="13" viewBox="0 0 13 13" fill="none" xmlns="http://www.w3.org/2000/svg">
<path d="M8.66683 11.375V10.2917C8.66683 9.71703 8.43856 9.16593 8.03223 8.7596C7.6259 8.35327 7.0748 8.125 6.50016 8.125H3.25016C2.67553 8.125 2.12443 8.35327 1.7181 8.7596C1.31177 9.16593 1.0835 9.71703 1.0835 10.2917V11.375" stroke="#EC4899" stroke-width="1.08333" stroke-linecap="round" stroke-linejoin="round"/>
<path d="M4.87516 5.95833C6.07178 5.95833 7.04183 4.98828 7.04183 3.79167C7.04183 2.59505 6.07178 1.625 4.87516 1.625C3.67855 1.625 2.7085 2.59505 2.7085 3.79167C2.7085 4.98828 3.67855 5.95833 4.87516 5.95833Z" stroke="#EC4899" stroke-width="1.08333" stroke-linecap="round" stroke-linejoin="round"/>
<path d="M11.9165 11.3749V10.2916C11.9161 9.8115 11.7564 9.34515 11.4622 8.96573C11.1681 8.58632 10.7563 8.31533 10.2915 8.19531" stroke="#EC4899" stroke-width="1.08333" stroke-linecap="round" stroke-linejoin="round"/>
<path d="M8.6665 1.69531C9.13256 1.81464 9.54565 2.08569 9.84064 2.46573C10.1356 2.84577 10.2958 3.31318 10.2958 3.79427C10.2958 4.27536 10.1356 4.74277 9.84064 5.12281C9.54565 5.50285 9.13256 5.7739 8.6665 5.89323" stroke="#EC4899" stroke-width="1.08333" stroke-linecap="round" stroke-linejoin="round"/>
</svg>
