<svg width="13" height="13" viewBox="0 0 13 13" fill="none" xmlns="http://www.w3.org/2000/svg">
<path d="M6.5 4.33337C9.19239 4.33337 11.375 3.60584 11.375 2.70837C11.375 1.81091 9.19239 1.08337 6.5 1.08337C3.80761 1.08337 1.625 1.81091 1.625 2.70837C1.625 3.60584 3.80761 4.33337 6.5 4.33337Z" stroke="#34D399" stroke-width="1.08333" stroke-linecap="round" stroke-linejoin="round"/>
<path d="M1.625 2.70837V10.2917C1.625 10.7227 2.13861 11.136 3.05285 11.4408C3.96709 11.7455 5.20707 11.9167 6.5 11.9167C7.79293 11.9167 9.03291 11.7455 9.94715 11.4408C10.8614 11.136 11.375 10.7227 11.375 10.2917V2.70837" stroke="#34D399" stroke-width="1.08333" stroke-linecap="round" stroke-linejoin="round"/>
<path d="M1.625 6.5C1.625 6.93098 2.13861 7.3443 3.05285 7.64905C3.96709 7.9538 5.20707 8.125 6.5 8.125C7.79293 8.125 9.03291 7.9538 9.94715 7.64905C10.8614 7.3443 11.375 6.93098 11.375 6.5" stroke="#34D399" stroke-width="1.08333" stroke-linecap="round" stroke-linejoin="round"/>
</svg>
