<svg width="13" height="13" viewBox="0 0 13 13" fill="none" xmlns="http://www.w3.org/2000/svg">
<path d="M3.25 11.9167V2.16671C3.25 1.87939 3.36414 1.60384 3.5673 1.40067C3.77047 1.19751 4.04602 1.08337 4.33333 1.08337H8.66667C8.95398 1.08337 9.22953 1.19751 9.4327 1.40067C9.63586 1.60384 9.75 1.87939 9.75 2.16671V11.9167H3.25Z" stroke="#F59E0B" stroke-width="1.08333" stroke-linecap="round" stroke-linejoin="round"/>
<path d="M3.25016 6.5H2.16683C1.87951 6.5 1.60396 6.61414 1.4008 6.8173C1.19763 7.02047 1.0835 7.29602 1.0835 7.58333V10.8333C1.0835 11.1207 1.19763 11.3962 1.4008 11.5994C1.60396 11.8025 1.87951 11.9167 2.16683 11.9167H3.25016" stroke="#F59E0B" stroke-width="1.08333" stroke-linecap="round" stroke-linejoin="round"/>
<path d="M9.75 4.875H10.8333C11.1207 4.875 11.3962 4.98914 11.5994 5.1923C11.8025 5.39547 11.9167 5.67102 11.9167 5.95833V10.8333C11.9167 11.1207 11.8025 11.3962 11.5994 11.5994C11.3962 11.8025 11.1207 11.9167 10.8333 11.9167H9.75" stroke="#F59E0B" stroke-width="1.08333" stroke-linecap="round" stroke-linejoin="round"/>
<path d="M5.4165 3.25H7.58317" stroke="#F59E0B" stroke-width="1.08333" stroke-linecap="round" stroke-linejoin="round"/>
<path d="M5.4165 5.41663H7.58317" stroke="#F59E0B" stroke-width="1.08333" stroke-linecap="round" stroke-linejoin="round"/>
<path d="M5.4165 7.58337H7.58317" stroke="#F59E0B" stroke-width="1.08333" stroke-linecap="round" stroke-linejoin="round"/>
<path d="M5.4165 9.75H7.58317" stroke="#F59E0B" stroke-width="1.08333" stroke-linecap="round" stroke-linejoin="round"/>
</svg>
