<svg width="13" height="13" viewBox="0 0 13 13" fill="none" xmlns="http://www.w3.org/2000/svg">
<g clip-path="url(#clip0_48_2563)">
<path d="M9.74984 2.16663H3.24984C2.65153 2.16663 2.1665 2.65165 2.1665 3.24996V9.74996C2.1665 10.3483 2.65153 10.8333 3.24984 10.8333H9.74984C10.3481 10.8333 10.8332 10.3483 10.8332 9.74996V3.24996C10.8332 2.65165 10.3481 2.16663 9.74984 2.16663Z" stroke="#22D3EE" stroke-width="1.08333" stroke-linecap="round" stroke-linejoin="round"/>
<path d="M7.58333 4.875H5.41667C5.11751 4.875 4.875 5.11751 4.875 5.41667V7.58333C4.875 7.88249 5.11751 8.125 5.41667 8.125H7.58333C7.88249 8.125 8.125 7.88249 8.125 7.58333V5.41667C8.125 5.11751 7.88249 4.875 7.58333 4.875Z" stroke="#22D3EE" stroke-width="1.08333" stroke-linecap="round" stroke-linejoin="round"/>
<path d="M8.125 1.08337V2.16671" stroke="#22D3EE" stroke-width="1.08333" stroke-linecap="round" stroke-linejoin="round"/>
<path d="M8.125 10.8334V11.9167" stroke="#22D3EE" stroke-width="1.08333" stroke-linecap="round" stroke-linejoin="round"/>
<path d="M1.0835 8.125H2.16683" stroke="#22D3EE" stroke-width="1.08333" stroke-linecap="round" stroke-linejoin="round"/>
<path d="M1.0835 4.875H2.16683" stroke="#22D3EE" stroke-width="1.08333" stroke-linecap="round" stroke-linejoin="round"/>
<path d="M10.8335 8.125H11.9168" stroke="#22D3EE" stroke-width="1.08333" stroke-linecap="round" stroke-linejoin="round"/>
<path d="M10.8335 4.875H11.9168" stroke="#22D3EE" stroke-width="1.08333" stroke-linecap="round" stroke-linejoin="round"/>
<path d="M4.875 1.08337V2.16671" stroke="#22D3EE" stroke-width="1.08333" stroke-linecap="round" stroke-linejoin="round"/>
<path d="M4.875 10.8334V11.9167" stroke="#22D3EE" stroke-width="1.08333" stroke-linecap="round" stroke-linejoin="round"/>
</g>
<defs>
<clipPath id="clip0_48_2563">
<rect width="13" height="13" fill="white"/>
</clipPath>
</defs>
</svg>
