<svg width="12" height="20" viewBox="0 0 12 20" fill="none" xmlns="http://www.w3.org/2000/svg">
<path d="M5.811 14.442C5.10033 14.442 4.433 14.3077 3.809 14.039C3.19367 13.779 2.64767 13.415 2.171 12.947C1.703 12.4703 1.33467 11.92 1.066 11.296C0.797333 10.672 0.663 10.0047 0.663 9.294C0.663 8.58333 0.797333 7.916 1.066 7.292C1.33467 6.668 1.703 6.122 2.171 5.654C2.64767 5.17733 3.19367 4.809 3.809 4.549C4.433 4.28033 5.10033 4.146 5.811 4.146C6.52167 4.146 7.189 4.28033 7.813 4.549C8.437 4.809 8.983 5.17733 9.451 5.654C9.92767 6.122 10.296 6.668 10.556 7.292C10.8247 7.916 10.959 8.58333 10.959 9.294C10.959 10.0047 10.8247 10.672 10.556 11.296C10.296 11.92 9.92767 12.4703 9.451 12.947C8.983 13.415 8.437 13.779 7.813 14.039C7.189 14.3077 6.52167 14.442 5.811 14.442ZM5.811 13.545C6.40033 13.545 6.95067 13.4367 7.462 13.22C7.97333 12.9947 8.424 12.687 8.814 12.297C9.204 11.907 9.50733 11.4563 9.724 10.945C9.94933 10.4337 10.062 9.88333 10.062 9.294C10.062 8.70467 9.94933 8.15433 9.724 7.643C9.50733 7.13167 9.204 6.681 8.814 6.291C8.424 5.901 7.97333 5.59767 7.462 5.381C6.95067 5.15567 6.40033 5.043 5.811 5.043C5.22167 5.043 4.67133 5.15567 4.16 5.381C3.64867 5.59767 3.198 5.901 2.808 6.291C2.418 6.681 2.11033 7.13167 1.885 7.643C1.66833 8.15433 1.56 8.70467 1.56 9.294C1.56 9.88333 1.66833 10.4337 1.885 10.945C2.11033 11.4563 2.418 11.907 2.808 12.297C3.198 12.687 3.64867 12.9947 4.16 13.22C4.67133 13.4367 5.22167 13.545 5.811 13.545ZM5.811 12.921C5.30833 12.921 4.836 12.83 4.394 12.648C3.96067 12.4573 3.575 12.1973 3.237 11.868C2.90767 11.53 2.64767 11.1443 2.457 10.711C2.275 10.269 2.184 9.79667 2.184 9.294C2.184 8.79133 2.275 8.32333 2.457 7.89C2.64767 7.448 2.90767 7.06233 3.237 6.733C3.575 6.395 3.96067 6.135 4.394 5.953C4.836 5.76233 5.30833 5.667 5.811 5.667C6.31367 5.667 6.786 5.76233 7.228 5.953C7.67 6.135 8.05567 6.395 8.385 6.733C8.723 7.06233 8.983 7.448 9.165 7.89C9.35567 8.32333 9.451 8.79133 9.451 9.294C9.451 9.79667 9.35567 10.269 9.165 10.711C8.983 11.1443 8.723 11.53 8.385 11.868C8.05567 12.1973 7.67 12.4573 7.228 12.648C6.786 12.83 6.31367 12.921 5.811 12.921ZM5.811 12.024C6.32233 12.024 6.78167 11.9027 7.189 11.66C7.605 11.4173 7.93433 11.088 8.177 10.672C8.42833 10.256 8.554 9.79667 8.554 9.294C8.554 8.78267 8.42833 8.32333 8.177 7.916C7.93433 7.5 7.605 7.17067 7.189 6.928C6.78167 6.68533 6.32233 6.564 5.811 6.564C5.30833 6.564 4.849 6.68533 4.433 6.928C4.017 7.17067 3.68767 7.5 3.445 7.916C3.20233 8.32333 3.081 8.78267 3.081 9.294C3.081 9.79667 3.20233 10.256 3.445 10.672C3.68767 11.088 4.017 11.4173 4.433 11.66C4.849 11.9027 5.30833 12.024 5.811 12.024Z" fill="#65C2CB"/>
</svg>
