<svg width="13" height="13" viewBox="0 0 13 13" fill="none" xmlns="http://www.w3.org/2000/svg">
<path d="M10.8335 1.08337H2.16683C1.56852 1.08337 1.0835 1.5684 1.0835 2.16671V4.33337C1.0835 4.93168 1.56852 5.41671 2.16683 5.41671H10.8335C11.4318 5.41671 11.9168 4.93168 11.9168 4.33337V2.16671C11.9168 1.5684 11.4318 1.08337 10.8335 1.08337Z" stroke="#22D3EE" stroke-width="1.08333" stroke-linecap="round" stroke-linejoin="round"/>
<path d="M10.8335 7.58337H2.16683C1.56852 7.58337 1.0835 8.0684 1.0835 8.66671V10.8334C1.0835 11.4317 1.56852 11.9167 2.16683 11.9167H10.8335C11.4318 11.9167 11.9168 11.4317 11.9168 10.8334V8.66671C11.9168 8.0684 11.4318 7.58337 10.8335 7.58337Z" stroke="#22D3EE" stroke-width="1.08333" stroke-linecap="round" stroke-linejoin="round"/>
<path d="M3.25 3.25H3.25542" stroke="#22D3EE" stroke-width="1.08333" stroke-linecap="round" stroke-linejoin="round"/>
<path d="M3.25 9.75H3.25542" stroke="#22D3EE" stroke-width="1.08333" stroke-linecap="round" stroke-linejoin="round"/>
</svg>
