<svg width="12" height="12" viewBox="0 0 12 12" fill="none" xmlns="http://www.w3.org/2000/svg">
<g clip-path="url(#clip0_48_1814)">
<path d="M9.5 5.5H2.5C1.94772 5.5 1.5 5.94772 1.5 6.5V10C1.5 10.5523 1.94772 11 2.5 11H9.5C10.0523 11 10.5 10.5523 10.5 10V6.5C10.5 5.94772 10.0523 5.5 9.5 5.5Z" stroke="#34D399" stroke-linecap="round" stroke-linejoin="round"/>
<path d="M3.5 5.49999V3.49999C3.49938 2.88001 3.72914 2.28192 4.14469 1.82182C4.56023 1.36172 5.13192 1.07244 5.74875 1.01013C6.36559 0.947823 6.98357 1.11694 7.48274 1.48464C7.9819 1.85235 8.32663 2.39241 8.45 2.99999" stroke="#34D399" stroke-linecap="round" stroke-linejoin="round"/>
</g>
<defs>
<clipPath id="clip0_48_1814">
<rect width="12" height="12" fill="white"/>
</clipPath>
</defs>
</svg>
