<svg width="12" height="12" viewBox="0 0 12 12" fill="none" xmlns="http://www.w3.org/2000/svg">
<g clip-path="url(#clip0_48_1825)">
<path d="M2.00024 6.99999C1.90562 7.00031 1.81286 6.97378 1.73272 6.92348C1.65258 6.87318 1.58836 6.80117 1.54752 6.71582C1.50667 6.63047 1.49089 6.53528 1.50199 6.44132C1.51309 6.34735 1.55063 6.25847 1.61024 6.18499L6.56024 1.08499C6.59737 1.04213 6.64797 1.01317 6.70373 1.00286C6.75949 0.992545 6.8171 1.0015 6.86711 1.02824C6.91711 1.05499 6.95653 1.09794 6.97891 1.15004C7.00128 1.20215 7.00528 1.26031 6.99024 1.31499L6.03024 4.32499C6.00193 4.40075 5.99243 4.48225 6.00254 4.56249C6.01265 4.64274 6.04207 4.71933 6.08829 4.7857C6.1345 4.85208 6.19613 4.90625 6.26788 4.94357C6.33963 4.98089 6.41936 5.00025 6.50024 4.99999H10.0002C10.0949 4.99967 10.1876 5.0262 10.2678 5.0765C10.3479 5.1268 10.4121 5.19881 10.453 5.28416C10.4938 5.36951 10.5096 5.4647 10.4985 5.55866C10.4874 5.65263 10.4499 5.74151 10.3902 5.81499L5.44024 10.915C5.40311 10.9578 5.35251 10.9868 5.29675 10.9971C5.24099 11.0074 5.18338 10.9985 5.13338 10.9717C5.08337 10.945 5.04395 10.902 5.02157 10.8499C4.9992 10.7978 4.9952 10.7397 5.01024 10.685L5.97024 7.67499C5.99855 7.59923 6.00805 7.51773 5.99794 7.43749C5.98783 7.35724 5.95841 7.28065 5.9122 7.21428C5.86598 7.1479 5.80435 7.09373 5.7326 7.05641C5.66085 7.01909 5.58112 6.99973 5.50024 6.99999H2.00024Z" stroke="#22D3EE" stroke-linecap="round" stroke-linejoin="round"/>
</g>
<defs>
<clipPath id="clip0_48_1825">
<rect width="12" height="12" fill="white"/>
</clipPath>
</defs>
</svg>
