<svg width="12" height="12" viewBox="0 0 12 12" fill="none" xmlns="http://www.w3.org/2000/svg">
<g clip-path="url(#clip0_48_1820)">
<path d="M10 6.50001C10 9.00001 8.25 10.25 6.17 10.975C6.06108 11.0119 5.94277 11.0102 5.835 10.97C3.75 10.25 2 9.00001 2 6.50001V3.00001C2 2.8674 2.05268 2.74023 2.14645 2.64646C2.24021 2.55269 2.36739 2.50001 2.5 2.50001C3.5 2.50001 4.75 1.90001 5.62 1.14001C5.72593 1.04951 5.86068 0.999786 6 0.999786C6.13932 0.999786 6.27407 1.04951 6.38 1.14001C7.255 1.90501 8.5 2.50001 9.5 2.50001C9.63261 2.50001 9.75979 2.55269 9.85355 2.64646C9.94732 2.74023 10 2.8674 10 3.00001V6.50001Z" stroke="#F59E0B" stroke-linecap="round" stroke-linejoin="round"/>
</g>
<defs>
<clipPath id="clip0_48_1820">
<rect width="12" height="12" fill="white"/>
</clipPath>
</defs>
</svg>
