<svg width="13" height="13" viewBox="0 0 13 13" fill="none" xmlns="http://www.w3.org/2000/svg">
<path d="M11.9168 6.5H1.0835" stroke="#60A5FA" stroke-width="1.08333" stroke-linecap="round" stroke-linejoin="round"/>
<path d="M2.95225 2.76788L1.0835 6.49996V9.74996C1.0835 10.0373 1.19763 10.3128 1.4008 10.516C1.60396 10.7192 1.87951 10.8333 2.16683 10.8333H10.8335C11.1208 10.8333 11.3964 10.7192 11.5995 10.516C11.8027 10.3128 11.9168 10.0373 11.9168 9.74996V6.49996L10.0481 2.76788C9.95839 2.58739 9.82013 2.43549 9.64885 2.32928C9.47756 2.22306 9.28004 2.16673 9.0785 2.16663H3.92183C3.72028 2.16673 3.52276 2.22306 3.35148 2.32928C3.18019 2.43549 3.04193 2.58739 2.95225 2.76788Z" stroke="#60A5FA" stroke-width="1.08333" stroke-linecap="round" stroke-linejoin="round"/>
<path d="M3.25 8.66663H3.25542" stroke="#60A5FA" stroke-width="1.08333" stroke-linecap="round" stroke-linejoin="round"/>
<path d="M5.4165 8.66663H5.42192" stroke="#60A5FA" stroke-width="1.08333" stroke-linecap="round" stroke-linejoin="round"/>
</svg>
