<svg width="13" height="13" viewBox="0 0 13 13" fill="none" xmlns="http://www.w3.org/2000/svg">
<path d="M10.8332 7.04158C10.8332 9.74992 8.93734 11.1041 6.684 11.8895C6.56601 11.9295 6.43784 11.9276 6.32109 11.8841C4.06234 11.1041 2.1665 9.74992 2.1665 7.04158V3.24992C2.1665 3.10626 2.22357 2.96848 2.32515 2.8669C2.42674 2.76532 2.56451 2.70825 2.70817 2.70825C3.7915 2.70825 5.14567 2.05825 6.08817 1.23492C6.20293 1.13688 6.3489 1.08301 6.49984 1.08301C6.65077 1.08301 6.79675 1.13688 6.9115 1.23492C7.85942 2.06367 9.20817 2.70825 10.2915 2.70825C10.4352 2.70825 10.5729 2.76532 10.6745 2.8669C10.7761 2.96848 10.8332 3.10626 10.8332 3.24992V7.04158Z" stroke="#A855F7" stroke-width="1.08333" stroke-linecap="round" stroke-linejoin="round"/>
</svg>
