<svg width="18" height="18" viewBox="0 0 18 18" fill="none" xmlns="http://www.w3.org/2000/svg">
<path d="M9 6C12.7279 6 15.75 4.99264 15.75 3.75C15.75 2.50736 12.7279 1.5 9 1.5C5.27208 1.5 2.25 2.50736 2.25 3.75C2.25 4.99264 5.27208 6 9 6Z" stroke="#60A5FA" stroke-width="1.5" stroke-linecap="round" stroke-linejoin="round"/>
<path d="M2.25 3.75V14.25C2.25 14.8467 2.96116 15.419 4.22703 15.841C5.4929 16.2629 7.20979 16.5 9 16.5C10.7902 16.5 12.5071 16.2629 13.773 15.841C15.0388 15.419 15.75 14.8467 15.75 14.25V3.75" stroke="#60A5FA" stroke-width="1.5" stroke-linecap="round" stroke-linejoin="round"/>
<path d="M2.25 9C2.25 9.59674 2.96116 10.169 4.22703 10.591C5.4929 11.0129 7.20979 11.25 9 11.25C10.7902 11.25 12.5071 11.0129 13.773 10.591C15.0388 10.169 15.75 9.59674 15.75 9" stroke="#60A5FA" stroke-width="1.5" stroke-linecap="round" stroke-linejoin="round"/>
</svg>
