<svg width="18" height="18" viewBox="0 0 18 18" fill="none" xmlns="http://www.w3.org/2000/svg">
<path d="M3.375 12.375C2.25 13.32 1.875 16.125 1.875 16.125C1.875 16.125 4.68 15.75 5.625 14.625C6.1575 13.995 6.15 13.0275 5.5575 12.4425C5.26598 12.1643 4.88197 12.0035 4.47917 11.991C4.07637 11.9786 3.68316 12.1153 3.375 12.375Z" stroke="#EC4899" stroke-width="1.5" stroke-linecap="round" stroke-linejoin="round"/>
<path d="M9 11.2499L6.75 8.99994C7.14911 7.96451 7.65165 6.97199 8.25 6.03744C9.12389 4.64018 10.3407 3.48973 11.7848 2.69551C13.2288 1.90129 14.852 1.48972 16.5 1.49994C16.5 3.53994 15.915 7.12494 12 9.74994C11.0527 10.349 10.0476 10.8515 9 11.2499Z" stroke="#EC4899" stroke-width="1.5" stroke-linecap="round" stroke-linejoin="round"/>
<path d="M6.75 9.00001H3C3 9.00001 3.4125 6.72751 4.5 6.00001C5.715 5.19001 8.25 6.00001 8.25 6.00001" stroke="#EC4899" stroke-width="1.5" stroke-linecap="round" stroke-linejoin="round"/>
<path d="M9 11.25V15C9 15 11.2725 14.5875 12 13.5C12.81 12.285 12 9.75 12 9.75" stroke="#EC4899" stroke-width="1.5" stroke-linecap="round" stroke-linejoin="round"/>
</svg>
