<svg width="16" height="16" viewBox="0 0 16 16" fill="none" xmlns="http://www.w3.org/2000/svg">
<g clip-path="url(#clip0_119_168)">
<path d="M8.55333 1.45331C8.37962 1.37407 8.19092 1.33307 8 1.33307C7.80907 1.33307 7.62037 1.37407 7.44666 1.45331L1.73333 4.05331C1.61503 4.10547 1.51445 4.19091 1.44384 4.29921C1.37323 4.40752 1.33563 4.53402 1.33563 4.66331C1.33563 4.7926 1.37323 4.9191 1.44384 5.0274C1.51445 5.13571 1.61503 5.22114 1.73333 5.27331L7.45333 7.87997C7.62704 7.95921 7.81574 8.00021 8.00666 8.00021C8.19759 8.00021 8.38629 7.95921 8.56 7.87997L14.28 5.27997C14.3983 5.22781 14.4989 5.14237 14.5695 5.03407C14.6401 4.92576 14.6777 4.79926 14.6777 4.66997C14.6777 4.54068 14.6401 4.41418 14.5695 4.30588C14.4989 4.19757 14.3983 4.11214 14.28 4.05997L8.55333 1.45331Z" stroke="#A855F7" stroke-width="1.33333" stroke-linecap="round" stroke-linejoin="round"/>
<path d="M1.33333 8C1.33301 8.12751 1.36927 8.25244 1.43781 8.35997C1.50634 8.46749 1.60428 8.55311 1.72 8.60667L7.45333 11.2133C7.62613 11.2916 7.81364 11.3321 8.00333 11.3321C8.19302 11.3321 8.38053 11.2916 8.55333 11.2133L14.2733 8.61333C14.3913 8.56029 14.4914 8.47406 14.5612 8.36516C14.631 8.25625 14.6677 8.12937 14.6667 8" stroke="#A855F7" stroke-width="1.33333" stroke-linecap="round" stroke-linejoin="round"/>
<path d="M1.33333 11.3333C1.33301 11.4608 1.36927 11.5858 1.43781 11.6933C1.50634 11.8008 1.60428 11.8864 1.72 11.94L7.45333 14.5466C7.62613 14.6249 7.81364 14.6654 8.00333 14.6654C8.19302 14.6654 8.38053 14.6249 8.55333 14.5466L14.2733 11.9466C14.3913 11.8936 14.4914 11.8074 14.5612 11.6985C14.631 11.5896 14.6677 11.4627 14.6667 11.3333" stroke="#A855F7" stroke-width="1.33333" stroke-linecap="round" stroke-linejoin="round"/>
</g>
<defs>
<clipPath id="clip0_119_168">
<rect width="16" height="16" fill="white"/>
</clipPath>
</defs>
</svg>
