<svg width="18" height="18" viewBox="0 0 18 18" fill="none" xmlns="http://www.w3.org/2000/svg">
<g clip-path="url(#clip0_119_767)">
<path d="M9.62247 1.63502C9.42705 1.54589 9.21476 1.49976 8.99997 1.49976C8.78518 1.49976 8.57289 1.54589 8.37747 1.63502L1.94997 4.56002C1.81689 4.61871 1.70373 4.71482 1.62429 4.83667C1.54486 4.95851 1.50256 5.10082 1.50256 5.24627C1.50256 5.39173 1.54486 5.53404 1.62429 5.65588C1.70373 5.77773 1.81689 5.87384 1.94997 5.93252L8.38497 8.86502C8.58039 8.95416 8.79268 9.00029 9.00747 9.00029C9.22226 9.00029 9.43455 8.95416 9.62997 8.86502L16.065 5.94002C16.1981 5.88134 16.3112 5.78522 16.3907 5.66338C16.4701 5.54154 16.5124 5.39923 16.5124 5.25377C16.5124 5.10832 16.4701 4.96601 16.3907 4.84417C16.3112 4.72232 16.1981 4.62621 16.065 4.56752L9.62247 1.63502Z" stroke="#06B6D4" stroke-width="1.5" stroke-linecap="round" stroke-linejoin="round"/>
<path d="M1.5 9C1.49965 9.14345 1.54044 9.28399 1.61754 9.40496C1.69464 9.52593 1.80482 9.62225 1.935 9.6825L8.385 12.615C8.5794 12.703 8.79035 12.7486 9.00375 12.7486C9.21715 12.7486 9.4281 12.703 9.6225 12.615L16.0575 9.69C16.1903 9.63033 16.3028 9.53332 16.3814 9.4108C16.4599 9.28828 16.5012 9.14555 16.5 9" stroke="#06B6D4" stroke-width="1.5" stroke-linecap="round" stroke-linejoin="round"/>
<path d="M1.5 12.75C1.49965 12.8935 1.54044 13.034 1.61754 13.155C1.69464 13.2759 1.80482 13.3723 1.935 13.4325L8.385 16.365C8.5794 16.453 8.79035 16.4986 9.00375 16.4986C9.21715 16.4986 9.4281 16.453 9.6225 16.365L16.0575 13.44C16.1903 13.3803 16.3028 13.2833 16.3814 13.1608C16.4599 13.0383 16.5012 12.8955 16.5 12.75" stroke="#06B6D4" stroke-width="1.5" stroke-linecap="round" stroke-linejoin="round"/>
</g>
<defs>
<clipPath id="clip0_119_767">
<rect width="18" height="18" fill="white"/>
</clipPath>
</defs>
</svg>
