<svg width="18" height="18" viewBox="0 0 18 18" fill="none" xmlns="http://www.w3.org/2000/svg">
<path d="M13.05 7.12493C12.7871 6.32588 12.2862 5.62629 11.6145 5.11997C10.9427 4.61366 10.1322 4.32481 9.29169 4.29217C8.45113 4.25953 7.62068 4.48465 6.9117 4.93734C6.20271 5.39004 5.64906 6.04867 5.325 6.82493C4.66375 6.97763 4.07382 7.35002 3.65153 7.88128C3.22925 8.41254 2.99957 9.07128 3 9.74993C3 10.5456 3.31607 11.3086 3.87868 11.8713C4.44129 12.4339 5.20435 12.7499 6 12.7499H12.75C13.3467 12.7499 13.919 12.5129 14.341 12.0909C14.7629 11.669 15 11.0967 15 10.4999C15.0532 10.1985 15.0443 9.88935 14.9738 9.59145C14.9034 9.29356 14.7729 9.01317 14.5904 8.76745C14.4078 8.52172 14.1771 8.31583 13.9122 8.16237C13.6474 8.0089 13.354 7.9111 13.05 7.87493V7.12493Z" fill="#FF9900"/>
<path d="M5.625 14.625C7.125 15.6 8.775 15.75 10.5 15.375C12.225 15 13.5 13.875 14.25 12.75C13.125 13.5 11.625 14.1 10.125 14.25C8.625 14.325 7.125 13.95 5.625 13.125L4.875 14.625H5.625Z" fill="#FF9900"/>
</svg>
