<svg width="13" height="13" viewBox="0 0 13 13" fill="none" xmlns="http://www.w3.org/2000/svg">
<path d="M8.66667 11.375V10.2917C8.66667 9.71703 8.43839 9.16593 8.03207 8.7596C7.62574 8.35327 7.07464 8.125 6.5 8.125H3.25C2.67536 8.125 2.12426 8.35327 1.71794 8.7596C1.31161 9.16593 1.08333 9.71703 1.08333 10.2917V11.375" stroke="#64748B" stroke-width="1.08333" stroke-linecap="round" stroke-linejoin="round"/>
<path d="M4.875 5.95833C6.07162 5.95833 7.04167 4.98828 7.04167 3.79167C7.04167 2.59505 6.07162 1.625 4.875 1.625C3.67838 1.625 2.70833 2.59505 2.70833 3.79167C2.70833 4.98828 3.67838 5.95833 4.875 5.95833Z" stroke="#64748B" stroke-width="1.08333" stroke-linecap="round" stroke-linejoin="round"/>
<path d="M11.9167 11.375V10.2917C11.9163 9.81159 11.7565 9.34524 11.4624 8.96582C11.1683 8.58641 10.7565 8.31542 10.2917 8.1954" stroke="#64748B" stroke-width="1.08333" stroke-linecap="round" stroke-linejoin="round"/>
<path d="M8.66667 1.6954C9.13273 1.81473 9.54581 2.08578 9.84081 2.46582C10.1358 2.84586 10.2959 3.31327 10.2959 3.79436C10.2959 4.27545 10.1358 4.74286 9.84081 5.1229C9.54581 5.50294 9.13273 5.77399 8.66667 5.89332" stroke="#64748B" stroke-width="1.08333" stroke-linecap="round" stroke-linejoin="round"/>
</svg>
