<svg width="18" height="18" viewBox="0 0 18 18" fill="none" xmlns="http://www.w3.org/2000/svg">
<g clip-path="url(#clip0_119_720)">
<path d="M15.75 12H12.75C12.3358 12 12 12.3358 12 12.75V15.75C12 16.1642 12.3358 16.5 12.75 16.5H15.75C16.1642 16.5 16.5 16.1642 16.5 15.75V12.75C16.5 12.3358 16.1642 12 15.75 12Z" stroke="#A855F7" stroke-width="1.5" stroke-linecap="round" stroke-linejoin="round"/>
<path d="M5.25 12H2.25C1.83579 12 1.5 12.3358 1.5 12.75V15.75C1.5 16.1642 1.83579 16.5 2.25 16.5H5.25C5.66421 16.5 6 16.1642 6 15.75V12.75C6 12.3358 5.66421 12 5.25 12Z" stroke="#A855F7" stroke-width="1.5" stroke-linecap="round" stroke-linejoin="round"/>
<path d="M10.5 1.5H7.5C7.08579 1.5 6.75 1.83579 6.75 2.25V5.25C6.75 5.66421 7.08579 6 7.5 6H10.5C10.9142 6 11.25 5.66421 11.25 5.25V2.25C11.25 1.83579 10.9142 1.5 10.5 1.5Z" stroke="#A855F7" stroke-width="1.5" stroke-linecap="round" stroke-linejoin="round"/>
<path d="M3.75 12V9.75C3.75 9.55109 3.82902 9.36032 3.96967 9.21967C4.11032 9.07902 4.30109 9 4.5 9H13.5C13.6989 9 13.8897 9.07902 14.0303 9.21967C14.171 9.36032 14.25 9.55109 14.25 9.75V12" stroke="#A855F7" stroke-width="1.5" stroke-linecap="round" stroke-linejoin="round"/>
<path d="M9 9V6" stroke="#A855F7" stroke-width="1.5" stroke-linecap="round" stroke-linejoin="round"/>
</g>
<defs>
<clipPath id="clip0_119_720">
<rect width="18" height="18" fill="white"/>
</clipPath>
</defs>
</svg>
