<svg width="13" height="13" viewBox="0 0 13 13" fill="none" xmlns="http://www.w3.org/2000/svg">
<path d="M2.65417 10.3458C0.541667 8.23333 0.541667 4.76666 2.65417 2.65416" stroke="#64748B" stroke-width="1.08333" stroke-linecap="round" stroke-linejoin="round"/>
<path d="M4.225 8.775C2.97917 7.52917 2.97917 5.47084 4.225 4.17084" stroke="#64748B" stroke-width="1.08333" stroke-linecap="round" stroke-linejoin="round"/>
<path d="M6.5 7.58334C7.09831 7.58334 7.58333 7.09831 7.58333 6.50001C7.58333 5.9017 7.09831 5.41667 6.5 5.41667C5.90169 5.41667 5.41667 5.9017 5.41667 6.50001C5.41667 7.09831 5.90169 7.58334 6.5 7.58334Z" stroke="#64748B" stroke-width="1.08333" stroke-linecap="round" stroke-linejoin="round"/>
<path d="M8.775 4.22501C10.0208 5.47084 10.0208 7.52917 8.775 8.82917" stroke="#64748B" stroke-width="1.08333" stroke-linecap="round" stroke-linejoin="round"/>
<path d="M10.3458 2.65416C12.4583 4.76666 12.4583 8.17916 10.3458 10.2917" stroke="#64748B" stroke-width="1.08333" stroke-linecap="round" stroke-linejoin="round"/>
</svg>
