<svg width="13" height="13" viewBox="0 0 13 13" fill="none" xmlns="http://www.w3.org/2000/svg">
<path d="M8.125 1.08334H3.25C2.96268 1.08334 2.68713 1.19748 2.48397 1.40064C2.2808 1.60381 2.16667 1.87936 2.16667 2.16668V10.8333C2.16667 11.1207 2.2808 11.3962 2.48397 11.5994C2.68713 11.8025 2.96268 11.9167 3.25 11.9167H9.75C10.0373 11.9167 10.3129 11.8025 10.516 11.5994C10.7192 11.3962 10.8333 11.1207 10.8333 10.8333V3.79168L8.125 1.08334Z" stroke="#64748B" stroke-width="1.08333" stroke-linecap="round" stroke-linejoin="round"/>
<path d="M7.58333 1.08334V3.25001C7.58333 3.53733 7.69747 3.81288 7.90064 4.01604C8.1038 4.21921 8.37935 4.33334 8.66667 4.33334H10.8333" stroke="#64748B" stroke-width="1.08333" stroke-linecap="round" stroke-linejoin="round"/>
<path d="M5.41667 4.875H4.33333" stroke="#64748B" stroke-width="1.08333" stroke-linecap="round" stroke-linejoin="round"/>
<path d="M8.66667 7.04166H4.33333" stroke="#64748B" stroke-width="1.08333" stroke-linecap="round" stroke-linejoin="round"/>
<path d="M8.66667 9.20834H4.33333" stroke="#64748B" stroke-width="1.08333" stroke-linecap="round" stroke-linejoin="round"/>
</svg>
