<svg width="13" height="13" viewBox="0 0 13 13" fill="none" xmlns="http://www.w3.org/2000/svg">
<path d="M6.94958 1.18084C6.80844 1.11646 6.65513 1.08315 6.5 1.08315C6.34487 1.08315 6.19155 1.11646 6.05042 1.18084L1.40833 3.29334C1.31221 3.33572 1.23049 3.40514 1.17312 3.49314C1.11575 3.58113 1.0852 3.68392 1.0852 3.78896C1.0852 3.89401 1.11575 3.99679 1.17312 4.08479C1.23049 4.17279 1.31221 4.24221 1.40833 4.28459L6.05583 6.40251C6.19697 6.46688 6.35029 6.5002 6.50542 6.5002C6.66054 6.5002 6.81386 6.46688 6.955 6.40251L11.6025 4.29001C11.6986 4.24762 11.7803 4.17821 11.8377 4.09021C11.8951 4.00221 11.9256 3.89943 11.9256 3.79438C11.9256 3.68933 11.8951 3.58655 11.8377 3.49855C11.7803 3.41055 11.6986 3.34114 11.6025 3.29876L6.94958 1.18084Z" stroke="#64748B" stroke-width="1.08333" stroke-linecap="round" stroke-linejoin="round"/>
<path d="M1.08333 6.5C1.08308 6.6036 1.11254 6.70511 1.16822 6.79247C1.22391 6.87984 1.30348 6.9494 1.3975 6.99292L6.05583 9.11083C6.19623 9.17441 6.34858 9.2073 6.50271 9.2073C6.65683 9.2073 6.80918 9.17441 6.94958 9.11083L11.5971 6.99833C11.693 6.95524 11.7742 6.88518 11.831 6.79669C11.8877 6.7082 11.9175 6.60512 11.9167 6.5" stroke="#64748B" stroke-width="1.08333" stroke-linecap="round" stroke-linejoin="round"/>
<path d="M1.08333 9.20834C1.08308 9.31195 1.11254 9.41345 1.16822 9.50082C1.22391 9.58818 1.30348 9.65775 1.3975 9.70126L6.05583 11.8192C6.19623 11.8828 6.34858 11.9156 6.50271 11.9156C6.65683 11.9156 6.80918 11.8828 6.94958 11.8192L11.5971 9.70668C11.693 9.66358 11.7742 9.59352 11.831 9.50503C11.8877 9.41655 11.9175 9.31346 11.9167 9.20834" stroke="#64748B" stroke-width="1.08333" stroke-linecap="round" stroke-linejoin="round"/>
</svg>
