<svg width="13" height="13" viewBox="0 0 13 13" fill="none" xmlns="http://www.w3.org/2000/svg">
<path d="M6.5 11.9167C9.49154 11.9167 11.9167 9.49155 11.9167 6.50001C11.9167 3.50847 9.49154 1.08334 6.5 1.08334C3.50846 1.08334 1.08333 3.50847 1.08333 6.50001C1.08333 9.49155 3.50846 11.9167 6.5 11.9167Z" stroke="#64748B" stroke-width="1.08333" stroke-linecap="round" stroke-linejoin="round"/>
<path d="M4.92375 4.875C5.0511 4.51299 5.30246 4.20773 5.63331 4.01328C5.96416 3.81884 6.35315 3.74776 6.73139 3.81264C7.10962 3.87752 7.45269 4.07416 7.69983 4.36775C7.94697 4.66133 8.08224 5.03291 8.08167 5.41667C8.08167 6.5 6.45667 7.04167 6.45667 7.04167" stroke="#64748B" stroke-width="1.08333" stroke-linecap="round" stroke-linejoin="round"/>
<path d="M6.5 9.20834H6.50542" stroke="#64748B" stroke-width="1.08333" stroke-linecap="round" stroke-linejoin="round"/>
</svg>
