<svg width="18" height="18" viewBox="0 0 18 18" fill="none" xmlns="http://www.w3.org/2000/svg">
<path d="M16.5 9.1499C16.5 8.6249 16.425 8.0999 16.35 7.6499H9V10.4999H13.2C13.1066 10.9732 12.9191 11.4229 12.6486 11.8223C12.378 12.2217 12.0299 12.5627 11.625 12.8249V14.7749H14.175C15.675 13.4249 16.5 11.3999 16.5 9.1499Z" fill="#4285F4"/>
<path d="M8.99999 16.5C11.025 16.5 12.75 15.825 14.025 14.7L11.475 12.75C10.8 13.2 9.89999 13.5 8.99999 13.5C7.04999 13.5 5.39999 12.225 4.79999 10.425H2.17499V12.45C2.81998 13.6959 3.80145 14.7358 5.00791 15.4517C6.21437 16.1677 7.59744 16.5309 8.99999 16.5Z" fill="#34A853"/>
<path d="M4.80003 10.425C4.64758 9.96555 4.57157 9.48416 4.57503 9.00005C4.57503 8.47505 4.65003 7.95005 4.80003 7.50005V5.55005H2.17503C1.67988 6.63033 1.44853 7.81281 1.50003 9.00005C1.50003 10.2 1.80003 11.4 2.25003 12.45L4.80003 10.425Z" fill="#FBBC05"/>
<path d="M8.99999 4.5001C10.125 4.5001 11.1 4.8751 11.85 5.6251L14.025 3.4501C12.6495 2.19987 10.8588 1.50495 8.99999 1.5001C7.59744 1.4693 6.21437 1.83249 5.00791 2.54841C3.80145 3.26433 2.81998 4.30428 2.17499 5.5501L4.79999 7.5001C5.39999 5.7751 7.04999 4.5001 8.99999 4.5001Z" fill="#EA4335"/>
</svg>
