<svg width="18" height="18" viewBox="0 0 18 18" fill="none" xmlns="http://www.w3.org/2000/svg">
<path d="M13.875 8.39998C13.6298 7.48118 13.0999 6.66365 12.3613 6.06472C11.6226 5.4658 10.7132 5.11626 9.7636 5.06628C8.81396 5.0163 7.8729 5.26844 7.07547 5.78652C6.27804 6.3046 5.66523 7.06199 5.32498 7.94999C4.70324 8.02245 4.11974 8.28758 3.65621 8.70824C3.19269 9.12889 2.87234 9.684 2.74006 10.2958C2.60778 10.9076 2.67018 11.5455 2.91852 12.1201C3.16687 12.6946 3.58872 13.1771 4.12498 13.5H13.875C14.446 13.3605 14.9537 13.0333 15.3167 12.571C15.6797 12.1086 15.877 11.5378 15.877 10.95C15.877 10.3622 15.6797 9.79134 15.3167 9.32899C14.9537 8.86663 14.446 8.53949 13.875 8.39998Z" fill="#4285F4"/>
<path d="M5.25 13.5L4.125 12.75L4.5 12L5.625 12.75L5.25 13.5Z" fill="#EA4335"/>
<path d="M9 13.5V12H9.75V13.5H9Z" fill="#FBBC05"/>
<path d="M12.75 13.5L13.875 12.75L13.5 12L12.375 12.75L12.75 13.5Z" fill="#34A853"/>
</svg>
