<svg width="16" height="16" viewBox="0 0 16 16" fill="none" xmlns="http://www.w3.org/2000/svg">
<path d="M7.33334 13.3333C6.16271 13.3369 5.03351 12.9003 4.16968 12.1103C3.30586 11.3202 2.77052 10.2343 2.66983 9.06805C2.56914 7.90176 2.91047 6.74022 3.62611 5.81381C4.34175 4.88739 5.37943 4.26378 6.53334 4.06665C10.3333 3.33331 11.3333 2.98665 12.6667 1.33331C13.3333 2.66665 14 4.11998 14 6.66665C14 10.3333 10.8133 13.3333 7.33334 13.3333Z" stroke="#A855F7" stroke-width="1.33333" stroke-linecap="round" stroke-linejoin="round"/>
<path d="M1.33331 14C1.33331 12 2.56665 10.4267 4.71998 10C6.33331 9.68 7.99998 8.66667 8.66665 8" stroke="#A855F7" stroke-width="1.33333" stroke-linecap="round" stroke-linejoin="round"/>
</svg>
