<svg width="13" height="13" viewBox="0 0 13 13" fill="none" xmlns="http://www.w3.org/2000/svg">
<path d="M4.875 1.625H2.16667C1.86751 1.625 1.625 1.86751 1.625 2.16667V5.95833C1.625 6.25749 1.86751 6.5 2.16667 6.5H4.875C5.17415 6.5 5.41667 6.25749 5.41667 5.95833V2.16667C5.41667 1.86751 5.17415 1.625 4.875 1.625Z" stroke="#C4B5FD" stroke-width="1.08333" stroke-linecap="round" stroke-linejoin="round"/>
<path d="M10.8333 1.625H8.125C7.82585 1.625 7.58333 1.86751 7.58333 2.16667V3.79167C7.58333 4.09082 7.82585 4.33333 8.125 4.33333H10.8333C11.1325 4.33333 11.375 4.09082 11.375 3.79167V2.16667C11.375 1.86751 11.1325 1.625 10.8333 1.625Z" stroke="#C4B5FD" stroke-width="1.08333" stroke-linecap="round" stroke-linejoin="round"/>
<path d="M10.8333 6.5H8.125C7.82585 6.5 7.58333 6.74251 7.58333 7.04167V10.8333C7.58333 11.1325 7.82585 11.375 8.125 11.375H10.8333C11.1325 11.375 11.375 11.1325 11.375 10.8333V7.04167C11.375 6.74251 11.1325 6.5 10.8333 6.5Z" stroke="#C4B5FD" stroke-width="1.08333" stroke-linecap="round" stroke-linejoin="round"/>
<path d="M4.875 8.66666H2.16667C1.86751 8.66666 1.625 8.90918 1.625 9.20833V10.8333C1.625 11.1325 1.86751 11.375 2.16667 11.375H4.875C5.17415 11.375 5.41667 11.1325 5.41667 10.8333V9.20833C5.41667 8.90918 5.17415 8.66666 4.875 8.66666Z" stroke="#C4B5FD" stroke-width="1.08333" stroke-linecap="round" stroke-linejoin="round"/>
</svg>
