<svg width="10" height="10" viewBox="0 0 10 10" fill="none" xmlns="http://www.w3.org/2000/svg">
<g clip-path="url(#clip0_121_33)">
<path d="M2.19506 1.66597C2.12161 1.79287 2.08296 1.93691 2.08301 2.08353V7.91647C2.08296 8.06309 2.12161 8.20713 2.19506 8.33403C2.2685 8.46094 2.37413 8.56623 2.50129 8.63926C2.62845 8.7123 2.77263 8.75049 2.91927 8.75C3.06592 8.7495 3.20984 8.71032 3.3365 8.63643L8.33711 5.71995C8.46315 5.64654 8.56771 5.54134 8.64034 5.41486C8.71297 5.28839 8.75113 5.14507 8.75101 4.99922C8.75088 4.85338 8.71247 4.71013 8.63962 4.58378C8.56677 4.45743 8.46203 4.35241 8.33586 4.27921L3.3365 1.36357C3.20984 1.28968 3.06592 1.2505 2.91927 1.25C2.77263 1.24951 2.62845 1.2877 2.50129 1.36074C2.37413 1.43377 2.2685 1.53906 2.19506 1.66597Z" stroke="#C4B5FD" stroke-width="2" stroke-linecap="round"/>
</g>
<defs>
<clipPath id="clip0_121_33">
<rect width="10" height="10" fill="white"/>
</clipPath>
</defs>
</svg>
