<svg width="18" height="18" viewBox="0 0 18 18" fill="none" xmlns="http://www.w3.org/2000/svg">
<g clip-path="url(#clip0_119_1096)">
<path d="M12.675 6.15C12.5154 6.05784 12.3343 6.00933 12.15 6.00933C11.9657 6.00933 11.7846 6.05784 11.625 6.15L9.22498 7.575L7.57498 8.475L5.17498 9.9C5.01536 9.99216 4.83429 10.0407 4.64998 10.0407C4.46566 10.0407 4.2846 9.99216 4.12498 9.9L2.24998 8.775C2.09172 8.68364 1.96004 8.55256 1.86797 8.39471C1.77589 8.23687 1.7266 8.05773 1.72498 7.875V6C1.7266 5.81727 1.77589 5.63813 1.86797 5.48029C1.96004 5.32244 2.09172 5.19136 2.24998 5.1L4.12498 4.05C4.2846 3.95784 4.46566 3.90933 4.64998 3.90933C4.83429 3.90933 5.01536 3.95784 5.17498 4.05L7.04998 5.1C7.20823 5.19136 7.33991 5.32244 7.43198 5.48029C7.52406 5.63813 7.57335 5.81727 7.57498 6V7.425L9.22498 6.45V5.1C9.22335 4.91727 9.17406 4.73813 9.08199 4.58029C8.98991 4.42244 8.85823 4.29136 8.69998 4.2L6.82498 2.325C6.66536 2.23284 6.48429 2.18433 6.29998 2.18433C6.11566 2.18433 5.9346 2.23284 5.77498 2.325L2.47498 4.2C2.31672 4.29136 2.18504 4.42244 2.09297 4.58029C2.00089 4.73813 1.9516 4.91727 1.94998 5.1V8.85C1.9516 9.03273 2.00089 9.21187 2.09297 9.36971C2.18504 9.52756 2.31672 9.65864 2.47498 9.75L5.77498 11.625C5.9346 11.7172 6.11566 11.7657 6.29998 11.7657C6.48429 11.7657 6.66536 11.7172 6.82498 11.625L9.22498 10.2L10.875 9.3L13.275 7.875C13.4346 7.78284 13.6157 7.73433 13.8 7.73433C13.9843 7.73433 14.1654 7.78284 14.325 7.875L16.2 8.925C16.3582 9.01636 16.4899 9.14744 16.582 9.30529C16.6741 9.46313 16.7233 9.64227 16.725 9.825V11.7C16.7233 11.8827 16.6741 12.0619 16.582 12.2197C16.4899 12.3776 16.3582 12.5086 16.2 12.6L14.325 13.725C14.1654 13.8172 13.9843 13.8657 13.8 13.8657C13.6157 13.8657 13.4346 13.8172 13.275 13.725L11.4 12.6C11.2417 12.5086 11.11 12.3776 11.018 12.2197C10.9259 12.0619 10.8766 11.8827 10.875 11.7V10.275L9.97498 12V13.425C9.9766 13.6077 10.0259 13.7869 10.118 13.9447C10.21 14.1026 10.3417 14.2336 10.5 14.325L13.8 16.2C13.9596 16.2922 14.1407 16.3407 14.325 16.3407C14.5093 16.3407 14.6904 16.2922 14.85 16.2L18.15 14.325C18.3082 14.2336 18.4399 14.1026 18.532 13.9447C18.6241 13.7869 18.6733 13.6077 18.675 13.425V9.675C18.6733 9.49227 18.6241 9.31313 18.532 9.15529C18.4399 8.99744 18.3082 8.86636 18.15 8.775L12.675 6.15Z" fill="#8247E5"/>
</g>
<defs>
<clipPath id="clip0_119_1096">
<rect width="18" height="18" fill="white"/>
</clipPath>
</defs>
</svg>
