<svg width="13" height="13" viewBox="0 0 13 13" fill="none" xmlns="http://www.w3.org/2000/svg">
<path d="M7.64075 3.00787C7.79112 3.08301 7.95691 3.12213 8.125 3.12213C8.29309 3.12213 8.45888 3.08301 8.60925 3.00787L10.5912 2.01662C10.6739 1.97533 10.7657 1.95585 10.858 1.96006C10.9503 1.96426 11.04 1.992 11.1185 2.04064C11.197 2.08927 11.2618 2.15719 11.3067 2.23794C11.3516 2.31868 11.3751 2.40957 11.375 2.50196V9.41579C11.3749 9.51636 11.3469 9.61492 11.294 9.70045C11.2411 9.78598 11.1654 9.85509 11.0755 9.90004L8.60925 11.1334C8.45888 11.2086 8.29309 11.2477 8.125 11.2477C7.95691 11.2477 7.79112 11.2086 7.64075 11.1334L5.35925 9.99267C5.20888 9.91753 5.04309 9.87841 4.875 9.87841C4.7069 9.87841 4.54112 9.91753 4.39075 9.99267L2.40879 10.9839C2.32611 11.0252 2.23422 11.0447 2.14189 11.0405C2.04955 11.0362 1.95983 11.0085 1.88127 10.9598C1.80271 10.9111 1.73792 10.8431 1.69306 10.7622C1.6482 10.6814 1.62477 10.5905 1.625 10.498V3.58475C1.62505 3.48418 1.6531 3.38562 1.70601 3.30009C1.75891 3.21456 1.83458 3.14545 1.92454 3.1005L4.39075 1.86712C4.54112 1.79199 4.7069 1.75287 4.875 1.75287C5.04309 1.75287 5.20888 1.79199 5.35925 1.86712L7.64075 3.00787Z" stroke="#64748B" stroke-width="1.08333" stroke-linecap="round" stroke-linejoin="round"/>
<path d="M8.125 3.12216V11.2472" stroke="#64748B" stroke-width="1.08333" stroke-linecap="round" stroke-linejoin="round"/>
<path d="M4.875 1.75284V9.87784" stroke="#64748B" stroke-width="1.08333" stroke-linecap="round" stroke-linejoin="round"/>
</svg>
