<svg width="16" height="16" viewBox="0 0 16 16" fill="none" xmlns="http://www.w3.org/2000/svg">
<g clip-path="url(#clip0_121_27)">
<path d="M8.00054 9.99949V13.3328C8.00054 13.3328 10.0205 12.9662 10.6672 11.9995C11.3872 10.9195 10.6672 8.66616 10.6672 8.66616M8.00054 9.99949C8.93168 9.64511 9.82502 9.19844 10.6672 8.66616M8.00054 9.99949L6.00054 7.99966M6.00054 7.99966C6.3553 7.07928 6.80201 6.19703 7.33387 5.36632C8.11066 4.12431 9.19229 3.10169 10.4759 2.39572C11.7595 1.68975 13.2023 1.3239 14.6672 1.33299C14.6672 3.14632 14.1472 6.33282 10.6672 8.66616M6.00054 7.99966L2.66721 7.99922C2.66721 7.99922 3.03387 5.97922 4.00054 5.33256C5.08054 4.61256 7.33387 5.36632 7.33387 5.36632M3.00054 10.9997C2.00054 11.8397 1.66721 14.333 1.66721 14.333C1.66721 14.333 4.16054 13.9997 5.00054 12.9997C5.47387 12.4397 5.46721 11.5797 4.94054 11.0597C4.68141 10.8124 4.34007 10.6695 3.98202 10.6584C3.62398 10.6473 3.27446 10.7689 3.00054 10.9997Z" stroke="white" stroke-width="2" stroke-linecap="round"/>
</g>
<defs>
<clipPath id="clip0_121_27">
<rect width="16" height="16" fill="white"/>
</clipPath>
</defs>
</svg>
