<svg width="12" height="12" viewBox="0 0 12 12" fill="none" xmlns="http://www.w3.org/2000/svg">
<g clip-path="url(#clip0_119_1284)">
<path d="M7.26802 10.843C7.28702 10.8904 7.32004 10.9308 7.36266 10.9588C7.40528 10.9868 7.45545 11.0012 7.50645 10.9998C7.55744 10.9985 7.60681 10.9817 7.64794 10.9515C7.68907 10.9213 7.71998 10.8793 7.73652 10.831L10.9865 1.33103C11.0025 1.28672 11.0056 1.23878 10.9953 1.19281C10.9851 1.14683 10.9619 1.10472 10.9286 1.07142C10.8953 1.03811 10.8532 1.01498 10.8072 1.00472C10.7613 0.994472 10.7133 0.997526 10.669 1.01353L1.16902 4.26353C1.12077 4.28008 1.07874 4.31099 1.04856 4.35211C1.01838 4.39324 1.00151 4.44261 1.0002 4.49361C0.998898 4.5446 1.01322 4.59477 1.04125 4.63739C1.06929 4.68001 1.10968 4.71303 1.15702 4.73203L5.12203 6.32203C5.24737 6.37221 5.36125 6.44726 5.45681 6.54264C5.55236 6.63803 5.62762 6.75178 5.67802 6.87703L7.26802 10.843Z" stroke="white" stroke-linecap="round" stroke-linejoin="round"/>
<path d="M10.927 1.07349L5.45703 6.54299" stroke="white" stroke-linecap="round" stroke-linejoin="round"/>
</g>
<defs>
<clipPath id="clip0_119_1284">
<rect width="12" height="12" fill="white"/>
</clipPath>
</defs>
</svg>
