<svg width="200" height="160" viewBox="0 0 200 160" fill="none" xmlns="http://www.w3.org/2000/svg">
<path d="M172 80C172 61.7739 165.088 44.2259 152.657 30.8961C140.227 17.5664 123.204 9.44681 105.022 8.17542L103.139 35.1096C114.503 35.9043 125.142 40.979 132.911 49.3101C140.68 57.6412 145 68.6087 145 80H172Z" fill="#7C3AED" stroke="white"/>
<path d="M102.513 8.04387C89.4728 7.5885 76.5541 10.6852 65.1377 17.003C53.7213 23.3208 44.2363 32.6222 37.6965 43.913L61.0603 57.4456C65.1477 50.3889 71.0758 44.5755 78.2111 40.6269C85.3463 36.6783 93.4205 34.7428 101.57 35.0274L102.513 8.04387Z" fill="#3B82F6" stroke="white"/>
<path d="M36.475 46.1094C31.3665 55.6848 28.4888 66.2913 28.057 77.1357C27.6252 87.98 29.6506 98.7817 33.9817 108.733L58.7386 97.9582C56.0316 91.7386 54.7658 84.9876 55.0356 78.2098C55.3055 71.4321 57.1041 64.8031 60.2969 58.8184L36.475 46.1094Z" fill="#10B981" stroke="white"/>
<path d="M35.0247 111.02C39.7004 120.814 46.5298 129.424 55.0022 136.207C63.4745 142.99 73.3706 147.769 83.9505 150.188L89.9691 123.868C83.3566 122.356 77.1716 119.368 71.8763 115.129C66.5811 110.89 62.3128 105.509 59.3904 99.3872L35.0247 111.02Z" fill="#F59E0B" stroke="white"/>
<path d="M86.4098 150.706C100.667 153.446 115.421 151.812 128.733 146.018L117.958 121.261C109.638 124.883 100.417 125.904 91.5061 124.191L86.4098 150.706Z" fill="#EF4444" stroke="white"/>
<path d="M131.019 144.975C140.156 140.614 148.269 134.374 154.831 126.665L134.269 109.165C130.168 113.984 125.097 117.884 119.387 120.61L131.019 144.975Z" fill="#EC4899" stroke="white"/>
<path d="M156.426 124.723C160.91 119.066 164.517 112.767 167.127 106.037L141.955 96.2731C140.323 100.479 138.068 104.416 135.266 107.952L156.426 124.723Z" fill="#06B6D4" stroke="white"/>
<path d="M167.995 103.678C170.369 96.8616 171.704 89.7266 171.956 82.5127L144.973 81.5704C144.815 86.0791 143.981 90.5385 142.497 94.799L167.995 103.678Z" fill="#8B5CF6" stroke="white"/>
</svg>
