<svg width="18" height="18" viewBox="0 0 18 18" fill="none" xmlns="http://www.w3.org/2000/svg">
<path d="M9 16.5C13.1421 16.5 16.5 13.1421 16.5 9C16.5 4.85786 13.1421 1.5 9 1.5C4.85786 1.5 1.5 4.85786 1.5 9C1.5 13.1421 4.85786 16.5 9 16.5Z" fill="#6C37DC"/>
<path d="M9 7.125C9.62132 7.125 10.125 6.62132 10.125 6C10.125 5.37868 9.62132 4.875 9 4.875C8.37868 4.875 7.875 5.37868 7.875 6C7.875 6.62132 8.37868 7.125 9 7.125Z" fill="white"/>
<path d="M5.625 12C6.24632 12 6.75 11.4963 6.75 10.875C6.75 10.2537 6.24632 9.75 5.625 9.75C5.00368 9.75 4.5 10.2537 4.5 10.875C4.5 11.4963 5.00368 12 5.625 12Z" fill="white"/>
<path d="M12.375 12C12.9963 12 13.5 11.4963 13.5 10.875C13.5 10.2537 12.9963 9.75 12.375 9.75C11.7537 9.75 11.25 10.2537 11.25 10.875C11.25 11.4963 11.7537 12 12.375 12Z" fill="white"/>
<path d="M8.99998 6.9751L6.22498 9.9751L8.99998 6.9751ZM8.99998 6.9751L11.775 9.9751L8.99998 6.9751ZM6.67498 11.6251H11.325H6.67498Z" fill="white"/>
<path d="M6.22498 9.9751L8.99998 6.9751L11.775 9.9751M6.67498 11.6251H11.325" stroke="white" stroke-width="1.3"/>
</svg>
