<svg width="30" height="30" viewBox="0 0 30 30" fill="none" xmlns="http://www.w3.org/2000/svg">
<g clip-path="url(#clip0_9_9)">
<path d="M23.75 11.25H6.25C4.86929 11.25 3.75 12.3693 3.75 13.75V23.75C3.75 25.1307 4.86929 26.25 6.25 26.25H23.75C25.1307 26.25 26.25 25.1307 26.25 23.75V13.75C26.25 12.3693 25.1307 11.25 23.75 11.25Z" stroke="#A855F7" stroke-width="1.875"/>
<path d="M15 8.75C16.3807 8.75 17.5 7.63071 17.5 6.25C17.5 4.86929 16.3807 3.75 15 3.75C13.6193 3.75 12.5 4.86929 12.5 6.25C12.5 7.63071 13.6193 8.75 15 8.75Z" stroke="#A855F7" stroke-width="1.875"/>
<path d="M15 8.75V11.25" stroke="#A855F7" stroke-width="1.875" stroke-linecap="round"/>
<path d="M10.625 20C11.6605 20 12.5 19.1605 12.5 18.125C12.5 17.0895 11.6605 16.25 10.625 16.25C9.58947 16.25 8.75 17.0895 8.75 18.125C8.75 19.1605 9.58947 20 10.625 20Z" fill="#A855F7"/>
<path d="M19.375 20C20.4105 20 21.25 19.1605 21.25 18.125C21.25 17.0895 20.4105 16.25 19.375 16.25C18.3395 16.25 17.5 17.0895 17.5 18.125C17.5 19.1605 18.3395 20 19.375 20Z" fill="#A855F7"/>
<path d="M11.25 23.125H18.75" stroke="#A855F7" stroke-width="1.875" stroke-linecap="round"/>
<path d="M3.75 17.5H1.25M28.75 17.5H26.25" stroke="#A855F7" stroke-width="1.5" stroke-linecap="round"/>
</g>
<defs>
<clipPath id="clip0_9_9">
<rect width="30" height="30" fill="white"/>
</clipPath>
</defs>
</svg>
