<svg width="30" height="30" viewBox="0 0 30 30" fill="none" xmlns="http://www.w3.org/2000/svg">
<g clip-path="url(#clip0_6_293)">
<path d="M15 9.75C20.5228 9.75 25 8.183 25 6.25C25 4.317 20.5228 2.75 15 2.75C9.47715 2.75 5 4.317 5 6.25C5 8.183 9.47715 9.75 15 9.75Z" stroke="#8B5CF6" stroke-width="1.875"/>
<path d="M5 6.25V12.5C5 14.4375 9.475 16 15 16C20.525 16 25 14.4375 25 12.5V6.25" stroke="#8B5CF6" stroke-width="1.875"/>
<path d="M5 12.5V18.75C5 20.6875 9.475 22.25 15 22.25C20.525 22.25 25 20.6875 25 18.75V12.5" stroke="#8B5CF6" stroke-width="1.875"/>
<path opacity="0.6" d="M10 9.375H12.5M10 15.625H12.5M10 21.875H12.5" stroke="#8B5CF6" stroke-width="1.25" stroke-linecap="round"/>
</g>
<defs>
<clipPath id="clip0_6_293">
<rect width="30" height="30" fill="white"/>
</clipPath>
</defs>
</svg>
