<svg width="12" height="12" viewBox="0 0 12 12" fill="none" xmlns="http://www.w3.org/2000/svg">
<path d="M5.88836 11.7767C5.07549 11.7767 4.31219 11.623 3.59845 11.3157C2.89462 11.0183 2.2701 10.602 1.72488 10.0667C1.18958 9.52147 0.768275 8.89199 0.460971 8.17825C0.153666 7.46451 1.41737e-05 6.70121 1.41737e-05 5.88834C1.41737e-05 5.07547 0.153666 4.31216 0.460971 3.59842C0.768275 2.88468 1.18958 2.26016 1.72488 1.72486C2.2701 1.17964 2.89462 0.758335 3.59845 0.460944C4.31219 0.15364 5.07549 -1.23546e-05 5.88836 -1.23546e-05C6.70123 -1.23546e-05 7.46454 0.15364 8.17828 0.460944C8.89201 0.758335 9.51654 1.17964 10.0518 1.72486C10.5971 2.26016 11.0184 2.88468 11.3158 3.59842C11.6231 4.31216 11.7767 5.07547 11.7767 5.88834C11.7767 6.70121 11.6231 7.46451 11.3158 8.17825C11.0184 8.89199 10.5971 9.52147 10.0518 10.0667C9.51654 10.602 8.89201 11.0183 8.17828 11.3157C7.46454 11.623 6.70123 11.7767 5.88836 11.7767ZM5.88836 10.7507C6.56245 10.7507 7.19193 10.6268 7.7768 10.3789C8.36167 10.1212 8.87714 9.76929 9.32323 9.3232C9.76932 8.87712 10.1163 8.36164 10.3641 7.77677C10.6218 7.1919 10.7507 6.56242 10.7507 5.88834C10.7507 5.21425 10.6218 4.58477 10.3641 3.9999C10.1163 3.41503 9.76932 2.89955 9.32323 2.45347C8.87714 2.00738 8.36167 1.66042 7.7768 1.4126C7.19193 1.15486 6.56245 1.02599 5.88836 1.02599C5.21428 1.02599 4.5848 1.15486 3.99993 1.4126C3.41506 1.66042 2.89958 2.00738 2.45349 2.45347C2.00741 2.89955 1.65549 3.41503 1.39775 3.9999C1.14993 4.58477 1.02601 5.21425 1.02601 5.88834C1.02601 6.56242 1.14993 7.1919 1.39775 7.77677C1.65549 8.36164 2.00741 8.87712 2.45349 9.3232C2.89958 9.76929 3.41506 10.1212 3.99993 10.3789C4.5848 10.6268 5.21428 10.7507 5.88836 10.7507ZM5.88836 10.0369C5.31341 10.0369 4.77314 9.93286 4.26758 9.72468C3.77193 9.5066 3.3308 9.20921 2.94419 8.83251C2.56749 8.4459 2.2701 8.00477 2.05201 7.50912C1.84384 7.00355 1.73975 6.46329 1.73975 5.88834C1.73975 5.31338 1.84384 4.77807 2.05201 4.28242C2.2701 3.77686 2.56749 3.33573 2.94419 2.95903C3.3308 2.57242 3.77193 2.27503 4.26758 2.06686C4.77314 1.84877 5.31341 1.73973 5.88836 1.73973C6.46332 1.73973 7.00358 1.84877 7.50915 2.06686C8.01471 2.27503 8.45584 2.57242 8.83254 2.95903C9.21914 3.33573 9.51654 3.77686 9.72471 4.28242C9.9428 4.77807 10.0518 5.31338 10.0518 5.88834C10.0518 6.46329 9.9428 7.00355 9.72471 7.50912C9.51654 8.00477 9.21914 8.4459 8.83254 8.83251C8.45584 9.20921 8.01471 9.5066 7.50915 9.72468C7.00358 9.93286 6.46332 10.0369 5.88836 10.0369Z" fill="#34D399"/>
</svg>
