<svg width="16" height="16" viewBox="0 0 16 16" fill="none" xmlns="http://www.w3.org/2000/svg">
<g clip-path="url(#clip0_6_492)">
<path d="M14 10.6666H11.3333C10.9651 10.6666 10.6666 10.9651 10.6666 11.3333V14C10.6666 14.3681 10.9651 14.6666 11.3333 14.6666H14C14.3681 14.6666 14.6666 14.3681 14.6666 14V11.3333C14.6666 10.9651 14.3681 10.6666 14 10.6666Z" stroke="#60A5FA" stroke-width="1.33333" stroke-linecap="round" stroke-linejoin="round"/>
<path d="M4.66671 10.6666H2.00004C1.63185 10.6666 1.33337 10.9651 1.33337 11.3333V14C1.33337 14.3681 1.63185 14.6666 2.00004 14.6666H4.66671C5.0349 14.6666 5.33337 14.3681 5.33337 14V11.3333C5.33337 10.9651 5.0349 10.6666 4.66671 10.6666Z" stroke="#60A5FA" stroke-width="1.33333" stroke-linecap="round" stroke-linejoin="round"/>
<path d="M9.33333 1.33337H6.66667C6.29848 1.33337 6 1.63185 6 2.00004V4.66671C6 5.0349 6.29848 5.33337 6.66667 5.33337H9.33333C9.70152 5.33337 10 5.0349 10 4.66671V2.00004C10 1.63185 9.70152 1.33337 9.33333 1.33337Z" stroke="#60A5FA" stroke-width="1.33333" stroke-linecap="round" stroke-linejoin="round"/>
<path d="M3.33337 10.6667V8.66667C3.33337 8.48986 3.40361 8.32029 3.52864 8.19526C3.65366 8.07024 3.82323 8 4.00004 8H12C12.1769 8 12.3464 8.07024 12.4714 8.19526C12.5965 8.32029 12.6667 8.48986 12.6667 8.66667V10.6667" stroke="#60A5FA" stroke-width="1.33333" stroke-linecap="round" stroke-linejoin="round"/>
<path d="M8 8.00004V5.33337" stroke="#60A5FA" stroke-width="1.33333" stroke-linecap="round" stroke-linejoin="round"/>
</g>
<defs>
<clipPath id="clip0_6_492">
<rect width="16" height="16" fill="white"/>
</clipPath>
</defs>
</svg>
