<svg width="30" height="30" viewBox="0 0 30 30" fill="none" xmlns="http://www.w3.org/2000/svg">
<g clip-path="url(#clip0_6_325)">
<path d="M3.75 26.25H26.25" stroke="#34D399" stroke-width="1.875" stroke-linecap="round"/>
<path d="M6.25 26.25V6.875L15 3.75L23.75 6.875V26.25" stroke="#34D399" stroke-width="1.875" stroke-linejoin="round"/>
<path d="M17.5 16.25H12.5C12.1548 16.25 11.875 16.5298 11.875 16.875V25.625C11.875 25.9702 12.1548 26.25 12.5 26.25H17.5C17.8452 26.25 18.125 25.9702 18.125 25.625V16.875C18.125 16.5298 17.8452 16.25 17.5 16.25Z" stroke="#34D399" stroke-width="1.625"/>
<path d="M11.875 10.625H9.375C9.02982 10.625 8.75 10.9048 8.75 11.25V13.75C8.75 14.0952 9.02982 14.375 9.375 14.375H11.875C12.2202 14.375 12.5 14.0952 12.5 13.75V11.25C12.5 10.9048 12.2202 10.625 11.875 10.625Z" fill="#34D399" fill-opacity="0.45"/>
<path d="M20.625 10.625H18.125C17.7798 10.625 17.5 10.9048 17.5 11.25V13.75C17.5 14.0952 17.7798 14.375 18.125 14.375H20.625C20.9702 14.375 21.25 14.0952 21.25 13.75V11.25C21.25 10.9048 20.9702 10.625 20.625 10.625Z" fill="#34D399" fill-opacity="0.45"/>
<path d="M10.875 16.875H9.125C8.91789 16.875 8.75 17.0429 8.75 17.25V19C8.75 19.2071 8.91789 19.375 9.125 19.375H10.875C11.0821 19.375 11.25 19.2071 11.25 19V17.25C11.25 17.0429 11.0821 16.875 10.875 16.875Z" fill="#34D399" fill-opacity="0.45"/>
<path d="M20.875 16.875H19.125C18.9179 16.875 18.75 17.0429 18.75 17.25V19C18.75 19.2071 18.9179 19.375 19.125 19.375H20.875C21.0821 19.375 21.25 19.2071 21.25 19V17.25C21.25 17.0429 21.0821 16.875 20.875 16.875Z" fill="#34D399" fill-opacity="0.45"/>
</g>
<defs>
<clipPath id="clip0_6_325">
<rect width="30" height="30" fill="white"/>
</clipPath>
</defs>
</svg>
