<svg width="16" height="16" viewBox="0 0 16 16" fill="none" xmlns="http://www.w3.org/2000/svg">
<g clip-path="url(#clip0_6_597)">
<path d="M2.66662 9.33328C2.54046 9.33371 2.41677 9.29833 2.30992 9.23126C2.20307 9.1642 2.11744 9.06818 2.06299 8.95438C2.00853 8.84059 1.98748 8.71367 2.00229 8.58838C2.01709 8.4631 2.06714 8.34459 2.14662 8.24661L8.74662 1.44661C8.79613 1.38947 8.86359 1.35085 8.93794 1.3371C9.01229 1.32335 9.0891 1.33529 9.15577 1.37095C9.22245 1.40661 9.27501 1.46388 9.30484 1.53335C9.33468 1.60283 9.34001 1.68038 9.31995 1.75328L8.03995 5.76661C8.00221 5.86763 7.98954 5.97629 8.00302 6.08328C8.01649 6.19028 8.05573 6.2924 8.11735 6.3809C8.17897 6.46939 8.26114 6.54162 8.3568 6.59139C8.45247 6.64115 8.55878 6.66696 8.66662 6.66661H13.3333C13.4594 6.66618 13.5831 6.70156 13.69 6.76863C13.7968 6.8357 13.8825 6.93171 13.9369 7.04551C13.9914 7.15931 14.0124 7.28622 13.9976 7.41151C13.9828 7.53679 13.9328 7.65531 13.8533 7.75328L7.25329 14.5533C7.20378 14.6104 7.13631 14.649 7.06197 14.6628C6.98762 14.6765 6.9108 14.6646 6.84413 14.6289C6.77746 14.5933 6.7249 14.536 6.69506 14.4665C6.66523 14.3971 6.6599 14.3195 6.67995 14.2466L7.95995 10.2333C7.9977 10.1323 8.01037 10.0236 7.99689 9.91661C7.98341 9.80962 7.94418 9.70749 7.88256 9.619C7.82094 9.5305 7.73877 9.45827 7.6431 9.40851C7.54744 9.35874 7.44112 9.33293 7.33329 9.33328H2.66662Z" stroke="#F59E0B" stroke-width="1.33333" stroke-linecap="round" stroke-linejoin="round"/>
</g>
<defs>
<clipPath id="clip0_6_597">
<rect width="16" height="16" fill="white"/>
</clipPath>
</defs>
</svg>
