<svg width="13" height="13" viewBox="0 0 13 13" fill="none" xmlns="http://www.w3.org/2000/svg">
<path d="M2.43746 8.93749C1.62496 9.61999 1.35413 11.6458 1.35413 11.6458C1.35413 11.6458 3.37996 11.375 4.06246 10.5625C4.44704 10.1075 4.44163 9.40874 4.01371 8.98624C3.80317 8.78529 3.52583 8.66917 3.23492 8.66017C2.944 8.65117 2.66002 8.74993 2.43746 8.93749Z" stroke="white" stroke-width="1.08333" stroke-linecap="round" stroke-linejoin="round"/>
<path d="M6.5 8.12499L4.875 6.49999C5.16325 5.75218 5.52619 5.03536 5.95833 4.36041C6.58947 3.35128 7.4683 2.52039 8.51121 1.94679C9.55412 1.37319 10.7264 1.07594 11.9167 1.08333C11.9167 2.55666 11.4942 5.14583 8.66667 7.04166C7.98248 7.4743 7.25663 7.83723 6.5 8.12499Z" stroke="white" stroke-width="1.08333" stroke-linecap="round" stroke-linejoin="round"/>
<path d="M4.87496 6.5H2.16663C2.16663 6.5 2.46454 4.85875 3.24996 4.33333C4.12746 3.74833 5.95829 4.33333 5.95829 4.33333" stroke="white" stroke-width="1.08333" stroke-linecap="round" stroke-linejoin="round"/>
<path d="M6.5 8.12499V10.8333C6.5 10.8333 8.14125 10.5354 8.66667 9.74999C9.25167 8.87249 8.66667 7.04166 8.66667 7.04166" stroke="white" stroke-width="1.08333" stroke-linecap="round" stroke-linejoin="round"/>
</svg>
