<svg width="15" height="15" viewBox="0 0 15 15" fill="none" xmlns="http://www.w3.org/2000/svg">
<g clip-path="url(#clip0_6_464)">
<path d="M8.01879 1.36248C7.85594 1.2882 7.67903 1.24976 7.50004 1.24976C7.32105 1.24976 7.14414 1.2882 6.98129 1.36248L1.62504 3.79998C1.51413 3.84888 1.41984 3.92898 1.35364 4.03051C1.28744 4.13205 1.2522 4.25064 1.2522 4.37185C1.2522 4.49306 1.28744 4.61166 1.35364 4.71319C1.41984 4.81473 1.51413 4.89483 1.62504 4.94373L6.98754 7.38748C7.15039 7.46176 7.3273 7.5002 7.50629 7.5002C7.68528 7.5002 7.86219 7.46176 8.02504 7.38748L13.3875 4.94998C13.4984 4.90108 13.5927 4.82098 13.6589 4.71944C13.7251 4.61791 13.7604 4.49931 13.7604 4.3781C13.7604 4.25689 13.7251 4.1383 13.6589 4.03676C13.5927 3.93523 13.4984 3.85513 13.3875 3.80623L8.01879 1.36248Z" stroke="#EC4899" stroke-width="1.25" stroke-linecap="round" stroke-linejoin="round"/>
<path d="M1.25 7.5C1.24971 7.61954 1.2837 7.73666 1.34795 7.83747C1.4122 7.93828 1.50401 8.01854 1.6125 8.06875L6.9875 10.5125C7.1495 10.5859 7.32529 10.6238 7.50313 10.6238C7.68096 10.6238 7.85675 10.5859 8.01875 10.5125L13.3813 8.075C13.4919 8.02527 13.5857 7.94443 13.6511 7.84233C13.7166 7.74023 13.751 7.62129 13.75 7.5" stroke="#EC4899" stroke-width="1.25" stroke-linecap="round" stroke-linejoin="round"/>
<path d="M1.25 10.625C1.24971 10.7445 1.2837 10.8617 1.34795 10.9625C1.4122 11.0633 1.50401 11.1435 1.6125 11.1937L6.9875 13.6375C7.1495 13.7109 7.32529 13.7488 7.50313 13.7488C7.68096 13.7488 7.85675 13.7109 8.01875 13.6375L13.3813 11.2C13.4919 11.1503 13.5857 11.0694 13.6511 10.9673C13.7166 10.8652 13.751 10.7463 13.75 10.625" stroke="#EC4899" stroke-width="1.25" stroke-linecap="round" stroke-linejoin="round"/>
</g>
<defs>
<clipPath id="clip0_6_464">
<rect width="15" height="15" fill="white"/>
</clipPath>
</defs>
</svg>
