<svg width="16" height="16" viewBox="0 0 16 16" fill="none" xmlns="http://www.w3.org/2000/svg">
<g clip-path="url(#clip0_6_586)">
<path d="M8.55339 1.45337C8.37968 1.37413 8.19098 1.33313 8.00006 1.33313C7.80913 1.33313 7.62043 1.37413 7.44672 1.45337L1.73339 4.05337C1.61509 4.10553 1.51451 4.19097 1.4439 4.29927C1.37329 4.40758 1.33569 4.53408 1.33569 4.66337C1.33569 4.79266 1.37329 4.91916 1.4439 5.02746C1.51451 5.13577 1.61509 5.22121 1.73339 5.27337L7.45339 7.88003C7.6271 7.95927 7.8158 8.00027 8.00672 8.00027C8.19765 8.00027 8.38635 7.95927 8.56006 7.88003L14.2801 5.28003C14.3984 5.22787 14.4989 5.14244 14.5695 5.03413C14.6402 4.92583 14.6778 4.79932 14.6778 4.67003C14.6778 4.54074 14.6402 4.41424 14.5695 4.30594C14.4989 4.19763 14.3984 4.1122 14.2801 4.06003L8.55339 1.45337Z" stroke="#60A5FA" stroke-width="1.33333" stroke-linecap="round" stroke-linejoin="round"/>
<path d="M1.33338 8C1.33306 8.12751 1.36932 8.25244 1.43785 8.35997C1.50639 8.46749 1.60432 8.55311 1.72004 8.60667L7.45338 11.2133C7.62618 11.2916 7.81368 11.3321 8.00338 11.3321C8.19307 11.3321 8.38058 11.2916 8.55338 11.2133L14.2734 8.61333C14.3914 8.56029 14.4914 8.47406 14.5612 8.36516C14.6311 8.25625 14.6677 8.12937 14.6667 8" stroke="#60A5FA" stroke-width="1.33333" stroke-linecap="round" stroke-linejoin="round"/>
<path d="M1.33338 11.3334C1.33306 11.4609 1.36932 11.5858 1.43785 11.6933C1.50639 11.8009 1.60432 11.8865 1.72004 11.94L7.45338 14.5467C7.62618 14.625 7.81368 14.6654 8.00338 14.6654C8.19307 14.6654 8.38058 14.625 8.55338 14.5467L14.2734 11.9467C14.3914 11.8937 14.4914 11.8074 14.5612 11.6985C14.6311 11.5896 14.6677 11.4627 14.6667 11.3334" stroke="#60A5FA" stroke-width="1.33333" stroke-linecap="round" stroke-linejoin="round"/>
</g>
<defs>
<clipPath id="clip0_6_586">
<rect width="16" height="16" fill="white"/>
</clipPath>
</defs>
</svg>
