<svg width="16" height="16" viewBox="0 0 16 16" fill="none" xmlns="http://www.w3.org/2000/svg">
<g clip-path="url(#clip0_6_527)">
<path d="M12.6667 7.33337H3.33333C2.59695 7.33337 2 7.93033 2 8.66671V13.3334C2 14.0698 2.59695 14.6667 3.33333 14.6667H12.6667C13.403 14.6667 14 14.0698 14 13.3334V8.66671C14 7.93033 13.403 7.33337 12.6667 7.33337Z" stroke="#F59E0B" stroke-width="1.33333" stroke-linecap="round" stroke-linejoin="round"/>
<path d="M4.66663 7.33331V4.66665C4.6658 3.84001 4.97215 3.04256 5.52621 2.42909C6.08027 1.81563 6.84251 1.42992 7.66496 1.34684C8.48741 1.26376 9.31139 1.48925 9.97694 1.97952C10.6425 2.4698 11.1021 3.18988 11.2666 3.99998" stroke="#F59E0B" stroke-width="1.33333" stroke-linecap="round" stroke-linejoin="round"/>
</g>
<defs>
<clipPath id="clip0_6_527">
<rect width="16" height="16" fill="white"/>
</clipPath>
</defs>
</svg>
