<svg width="16" height="16" viewBox="0 0 16 16" fill="none" xmlns="http://www.w3.org/2000/svg">
<path d="M3.26689 12.7334C0.666895 10.1334 0.666895 5.86672 3.26689 3.26672" stroke="#22D3EE" stroke-width="1.33333" stroke-linecap="round" stroke-linejoin="round"/>
<path d="M5.1998 10.8C3.66647 9.26663 3.66647 6.7333 5.1998 5.1333" stroke="#22D3EE" stroke-width="1.33333" stroke-linecap="round" stroke-linejoin="round"/>
<path d="M7.99984 9.33329C8.73622 9.33329 9.33317 8.73634 9.33317 7.99996C9.33317 7.26358 8.73622 6.66663 7.99984 6.66663C7.26346 6.66663 6.6665 7.26358 6.6665 7.99996C6.6665 8.73634 7.26346 9.33329 7.99984 9.33329Z" stroke="#22D3EE" stroke-width="1.33333" stroke-linecap="round" stroke-linejoin="round"/>
<path d="M10.7998 5.19995C12.3331 6.73328 12.3331 9.26662 10.7998 10.8666" stroke="#22D3EE" stroke-width="1.33333" stroke-linecap="round" stroke-linejoin="round"/>
<path d="M12.7334 3.26672C15.3334 5.86672 15.3334 10.0667 12.7334 12.6667" stroke="#22D3EE" stroke-width="1.33333" stroke-linecap="round" stroke-linejoin="round"/>
</svg>
