<svg width="13" height="13" viewBox="0 0 13 13" fill="none" xmlns="http://www.w3.org/2000/svg">
<path d="M10.2917 5.95837H2.70833C2.11002 5.95837 1.625 6.4434 1.625 7.04171V10.8334C1.625 11.4317 2.11002 11.9167 2.70833 11.9167H10.2917C10.89 11.9167 11.375 11.4317 11.375 10.8334V7.04171C11.375 6.4434 10.89 5.95837 10.2917 5.95837Z" stroke="#34D399" stroke-width="1.08333" stroke-linecap="round" stroke-linejoin="round"/>
<path d="M3.7915 5.95837V3.79171C3.7915 3.07341 4.07685 2.38454 4.58476 1.87663C5.09267 1.36872 5.78154 1.08337 6.49984 1.08337C7.21813 1.08337 7.90701 1.36872 8.41492 1.87663C8.92283 2.38454 9.20817 3.07341 9.20817 3.79171V5.95837" stroke="#34D399" stroke-width="1.08333" stroke-linecap="round" stroke-linejoin="round"/>
</svg>
