<svg width="17" height="17" viewBox="0 0 17 17" fill="none" xmlns="http://www.w3.org/2000/svg">
<g clip-path="url(#clip0_19_1304)">
<path d="M4.24995 11.5643C3.50353 11.2099 2.85753 10.6745 2.37064 10.0069C1.88376 9.33929 1.57145 8.56058 1.46208 7.74155C1.35272 6.92253 1.44977 6.08915 1.74442 5.31718C2.03907 4.5452 2.52198 3.8591 3.14925 3.32124C3.77652 2.78338 4.52826 2.41081 5.33616 2.23739C6.14405 2.06397 6.98247 2.0952 7.77522 2.32824C8.56798 2.56129 9.28992 2.98876 9.87543 3.5718C10.4609 4.15484 10.8915 4.87497 11.1279 5.66672H12.3958C13.2114 5.6653 13.9966 5.9766 14.5896 6.53655C15.1827 7.09651 15.5385 7.8625 15.5839 8.67688C15.6293 9.49125 15.3608 10.292 14.8336 10.9144C14.3064 11.5368 13.5607 11.9334 12.75 12.0226" stroke="#60A5FA" stroke-width="1.41667" stroke-linecap="round" stroke-linejoin="round"/>
<path d="M9.2085 8.5L7.0835 12.0417H9.91683L7.79183 15.5833" stroke="#60A5FA" stroke-width="1.41667" stroke-linecap="round" stroke-linejoin="round"/>
</g>
<defs>
<clipPath id="clip0_19_1304">
<rect width="17" height="17" fill="white"/>
</clipPath>
</defs>
</svg>
