<svg width="20" height="20" viewBox="0 0 20 20" fill="none" xmlns="http://www.w3.org/2000/svg">
<path d="M10 6.66669C14.1421 6.66669 17.5 5.5474 17.5 4.16669C17.5 2.78598 14.1421 1.66669 10 1.66669C5.85786 1.66669 2.5 2.78598 2.5 4.16669C2.5 5.5474 5.85786 6.66669 10 6.66669Z" stroke="#34D399" stroke-width="1.66667" stroke-linecap="round" stroke-linejoin="round"/>
<path d="M2.5 4.16669V15.8334C2.5 16.4964 3.29018 17.1323 4.6967 17.6011C6.10322 18.07 8.01088 18.3334 10 18.3334C11.9891 18.3334 13.8968 18.07 15.3033 17.6011C16.7098 17.1323 17.5 16.4964 17.5 15.8334V4.16669" stroke="#34D399" stroke-width="1.66667" stroke-linecap="round" stroke-linejoin="round"/>
<path d="M2.5 10C2.5 10.663 3.29018 11.2989 4.6967 11.7678C6.10322 12.2366 8.01088 12.5 10 12.5C11.9891 12.5 13.8968 12.2366 15.3033 11.7678C16.7098 11.2989 17.5 10.663 17.5 10" stroke="#34D399" stroke-width="1.66667" stroke-linecap="round" stroke-linejoin="round"/>
</svg>
