<svg width="13" height="13" viewBox="0 0 13 13" fill="none" xmlns="http://www.w3.org/2000/svg">
<path d="M11.3748 8.66663H9.20817C8.90902 8.66663 8.6665 8.90914 8.6665 9.20829V11.375C8.6665 11.6741 8.90902 11.9166 9.20817 11.9166H11.3748C11.674 11.9166 11.9165 11.6741 11.9165 11.375V9.20829C11.9165 8.90914 11.674 8.66663 11.3748 8.66663Z" stroke="#60A5FA" stroke-width="1.08333" stroke-linecap="round" stroke-linejoin="round"/>
<path d="M3.79183 8.66663H1.62516C1.32601 8.66663 1.0835 8.90914 1.0835 9.20829V11.375C1.0835 11.6741 1.32601 11.9166 1.62516 11.9166H3.79183C4.09098 11.9166 4.3335 11.6741 4.3335 11.375V9.20829C4.3335 8.90914 4.09098 8.66663 3.79183 8.66663Z" stroke="#60A5FA" stroke-width="1.08333" stroke-linecap="round" stroke-linejoin="round"/>
<path d="M7.58333 1.08337H5.41667C5.11751 1.08337 4.875 1.32589 4.875 1.62504V3.79171C4.875 4.09086 5.11751 4.33337 5.41667 4.33337H7.58333C7.88249 4.33337 8.125 4.09086 8.125 3.79171V1.62504C8.125 1.32589 7.88249 1.08337 7.58333 1.08337Z" stroke="#60A5FA" stroke-width="1.08333" stroke-linecap="round" stroke-linejoin="round"/>
<path d="M2.7085 8.66667V7.04167C2.7085 6.89801 2.76556 6.76023 2.86715 6.65865C2.96873 6.55707 3.1065 6.5 3.25016 6.5H9.75016C9.89382 6.5 10.0316 6.55707 10.1332 6.65865C10.2348 6.76023 10.2918 6.89801 10.2918 7.04167V8.66667" stroke="#60A5FA" stroke-width="1.08333" stroke-linecap="round" stroke-linejoin="round"/>
<path d="M6.5 6.50004V4.33337" stroke="#60A5FA" stroke-width="1.08333" stroke-linecap="round" stroke-linejoin="round"/>
</svg>
