<svg width="17" height="17" viewBox="0 0 17 17" fill="none" xmlns="http://www.w3.org/2000/svg">
<path d="M2.83331 9.91664C2.69927 9.9171 2.56785 9.87951 2.45432 9.80825C2.34079 9.73699 2.24981 9.63497 2.19195 9.51406C2.13409 9.39315 2.11172 9.25831 2.12745 9.12519C2.14318 8.99207 2.19636 8.86615 2.28081 8.76206L9.29331 1.53706C9.34591 1.47634 9.41759 1.43531 9.49659 1.4207C9.57558 1.40609 9.6572 1.41877 9.72803 1.45666C9.79887 1.49455 9.85472 1.5554 9.88642 1.62922C9.91812 1.70303 9.92378 1.78543 9.90247 1.86289L8.54247 6.12706C8.50237 6.23439 8.4889 6.34984 8.50323 6.46352C8.51755 6.5772 8.55923 6.68571 8.6247 6.77973C8.69018 6.87376 8.77748 6.9505 8.87913 7.00338C8.98077 7.05625 9.09373 7.08368 9.20831 7.08331H14.1666C14.3007 7.08285 14.4321 7.12043 14.5456 7.1917C14.6592 7.26296 14.7501 7.36497 14.808 7.48588C14.8659 7.60679 14.8882 7.74164 14.8725 7.87476C14.8568 8.00787 14.8036 8.13379 14.7191 8.23789L7.70664 15.4629C7.65404 15.5236 7.58236 15.5646 7.50336 15.5792C7.42437 15.5939 7.34275 15.5812 7.27192 15.5433C7.20108 15.5054 7.14523 15.4445 7.11353 15.3707C7.08183 15.2969 7.07617 15.2145 7.09747 15.1371L8.45747 10.8729C8.49758 10.7656 8.51104 10.6501 8.49672 10.5364C8.4824 10.4227 8.44072 10.3142 8.37524 10.2202C8.30977 10.1262 8.22247 10.0494 8.12082 9.99657C8.01917 9.94369 7.90622 9.91627 7.79164 9.91664H2.83331Z" stroke="#F59E0B" stroke-width="1.41667" stroke-linecap="round" stroke-linejoin="round"/>
</svg>
