<svg width="17" height="17" viewBox="0 0 17 17" fill="none" xmlns="http://www.w3.org/2000/svg">
<path d="M4.25 15.5833V2.83329C4.25 2.45757 4.39926 2.09723 4.66493 1.83156C4.93061 1.56588 5.29094 1.41663 5.66667 1.41663H11.3333C11.7091 1.41663 12.0694 1.56588 12.3351 1.83156C12.6007 2.09723 12.75 2.45757 12.75 2.83329V15.5833H4.25Z" stroke="#EC4899" stroke-width="1.41667" stroke-linecap="round" stroke-linejoin="round"/>
<path d="M4.24984 8.5H2.83317C2.45745 8.5 2.09711 8.64926 1.83144 8.91493C1.56576 9.18061 1.4165 9.54094 1.4165 9.91667V14.1667C1.4165 14.5424 1.56576 14.9027 1.83144 15.1684C2.09711 15.4341 2.45745 15.5833 2.83317 15.5833H4.24984" stroke="#EC4899" stroke-width="1.41667" stroke-linecap="round" stroke-linejoin="round"/>
<path d="M12.75 6.375H14.1667C14.5424 6.375 14.9027 6.52426 15.1684 6.78993C15.4341 7.05561 15.5833 7.41594 15.5833 7.79167V14.1667C15.5833 14.5424 15.4341 14.9027 15.1684 15.1684C14.9027 15.4341 14.5424 15.5833 14.1667 15.5833H12.75" stroke="#EC4899" stroke-width="1.41667" stroke-linecap="round" stroke-linejoin="round"/>
<path d="M7.0835 4.25H9.91683" stroke="#EC4899" stroke-width="1.41667" stroke-linecap="round" stroke-linejoin="round"/>
<path d="M7.0835 7.08337H9.91683" stroke="#EC4899" stroke-width="1.41667" stroke-linecap="round" stroke-linejoin="round"/>
<path d="M7.0835 9.91663H9.91683" stroke="#EC4899" stroke-width="1.41667" stroke-linecap="round" stroke-linejoin="round"/>
<path d="M7.0835 12.75H9.91683" stroke="#EC4899" stroke-width="1.41667" stroke-linecap="round" stroke-linejoin="round"/>
</svg>
