<svg width="20" height="20" viewBox="0 0 20 20" fill="none" xmlns="http://www.w3.org/2000/svg">
<path d="M17.5002 13.3333H14.1668C13.7066 13.3333 13.3335 13.7064 13.3335 14.1666V17.5C13.3335 17.9602 13.7066 18.3333 14.1668 18.3333H17.5002C17.9604 18.3333 18.3335 17.9602 18.3335 17.5V14.1666C18.3335 13.7064 17.9604 13.3333 17.5002 13.3333Z" stroke="#EF4444" stroke-width="1.66667" stroke-linecap="round" stroke-linejoin="round"/>
<path d="M5.83317 13.3333H2.49984C2.0396 13.3333 1.6665 13.7064 1.6665 14.1666V17.5C1.6665 17.9602 2.0396 18.3333 2.49984 18.3333H5.83317C6.29341 18.3333 6.6665 17.9602 6.6665 17.5V14.1666C6.6665 13.7064 6.29341 13.3333 5.83317 13.3333Z" stroke="#EF4444" stroke-width="1.66667" stroke-linecap="round" stroke-linejoin="round"/>
<path d="M11.6667 1.66669H8.33333C7.8731 1.66669 7.5 2.03978 7.5 2.50002V5.83335C7.5 6.29359 7.8731 6.66669 8.33333 6.66669H11.6667C12.1269 6.66669 12.5 6.29359 12.5 5.83335V2.50002C12.5 2.03978 12.1269 1.66669 11.6667 1.66669Z" stroke="#EF4444" stroke-width="1.66667" stroke-linecap="round" stroke-linejoin="round"/>
<path d="M4.1665 13.3333V10.8333C4.1665 10.6123 4.2543 10.4004 4.41058 10.2441C4.56686 10.0878 4.77882 10 4.99984 10H14.9998C15.2209 10 15.4328 10.0878 15.5891 10.2441C15.7454 10.4004 15.8332 10.6123 15.8332 10.8333V13.3333" stroke="#EF4444" stroke-width="1.66667" stroke-linecap="round" stroke-linejoin="round"/>
<path d="M10 10V6.66669" stroke="#EF4444" stroke-width="1.66667" stroke-linecap="round" stroke-linejoin="round"/>
</svg>
