<svg width="16" height="16" viewBox="0 0 16 16" fill="none" xmlns="http://www.w3.org/2000/svg">
<g clip-path="url(#clip0_19_1462)">
<path d="M14.6668 8.00004H13.0135C12.7221 7.99942 12.4386 8.09424 12.2062 8.27002C11.9739 8.44579 11.8055 8.69284 11.7268 8.97337L10.1602 14.5467C10.1501 14.5813 10.129 14.6117 10.1002 14.6334C10.0713 14.655 10.0362 14.6667 10.0002 14.6667C9.9641 14.6667 9.92901 14.655 9.90016 14.6334C9.87131 14.6117 9.85026 14.5813 9.84016 14.5467L6.16016 1.45337C6.15007 1.41875 6.12901 1.38834 6.10016 1.36671C6.07131 1.34507 6.03622 1.33337 6.00016 1.33337C5.9641 1.33337 5.92901 1.34507 5.90016 1.36671C5.87131 1.38834 5.85026 1.41875 5.84016 1.45337L4.2735 7.02671C4.19514 7.30614 4.02775 7.55238 3.79674 7.72805C3.56573 7.90371 3.28371 7.99921 2.9935 8.00004H1.3335" stroke="#F59E0B" stroke-width="1.33333" stroke-linecap="round" stroke-linejoin="round"/>
</g>
<defs>
<clipPath id="clip0_19_1462">
<rect width="16" height="16" fill="white"/>
</clipPath>
</defs>
</svg>
