<svg width="13" height="13" viewBox="0 0 13 13" fill="none" xmlns="http://www.w3.org/2000/svg">
<path d="M2.16656 7.58332C2.06406 7.58367 1.96356 7.55493 1.87674 7.50043C1.78993 7.44594 1.72035 7.36793 1.67611 7.27547C1.63186 7.18301 1.61476 7.07989 1.62679 6.97809C1.63882 6.8763 1.67948 6.78001 1.74406 6.7004L7.10656 1.1754C7.14679 1.12897 7.2016 1.0976 7.26201 1.08643C7.32242 1.07525 7.38483 1.08495 7.439 1.11393C7.49317 1.1429 7.53588 1.18943 7.56012 1.24588C7.58436 1.30233 7.58869 1.36534 7.57239 1.42457L6.53239 4.6854C6.50173 4.76748 6.49143 4.85577 6.50238 4.9427C6.51333 5.02963 6.54521 5.11261 6.59528 5.18451C6.64534 5.25641 6.7121 5.3151 6.78984 5.35553C6.86757 5.39596 6.95394 5.41694 7.04156 5.41665H10.8332C10.9357 5.4163 11.0362 5.44505 11.123 5.49954C11.2099 5.55403 11.2794 5.63204 11.3237 5.72451C11.3679 5.81697 11.385 5.92009 11.373 6.02188C11.361 6.12368 11.3203 6.21997 11.2557 6.29957L5.89323 11.8246C5.853 11.871 5.79819 11.9024 5.73778 11.9135C5.67737 11.9247 5.61496 11.915 5.56079 11.886C5.50662 11.8571 5.46391 11.8105 5.43967 11.7541C5.41543 11.6976 5.4111 11.6346 5.42739 11.5754L6.46739 8.31457C6.49806 8.23249 6.50836 8.14421 6.49741 8.05727C6.48646 7.97034 6.45458 7.88737 6.40451 7.81546C6.35445 7.74356 6.28768 7.68487 6.20995 7.64444C6.13222 7.60401 6.04584 7.58304 5.95823 7.58332H2.16656Z" stroke="#F59E0B" stroke-width="1.08333" stroke-linecap="round" stroke-linejoin="round"/>
</svg>
