<svg width="17" height="17" viewBox="0 0 17 17" fill="none" xmlns="http://www.w3.org/2000/svg">
<g clip-path="url(#clip0_19_1322)">
<path d="M15.5832 8.5H1.4165" stroke="#A855F7" stroke-width="1.41667" stroke-linecap="round" stroke-linejoin="round"/>
<path d="M3.86025 3.61962L1.4165 8.50004V12.75C1.4165 13.1258 1.56576 13.4861 1.83144 13.7518C2.09711 14.0175 2.45745 14.1667 2.83317 14.1667H14.1665C14.5422 14.1667 14.9026 14.0175 15.1682 13.7518C15.4339 13.4861 15.5832 13.1258 15.5832 12.75V8.50004L13.1394 3.61962C13.0221 3.3836 12.8413 3.18497 12.6173 3.04607C12.3934 2.90717 12.1351 2.83351 11.8715 2.83337H5.12817C4.86461 2.83351 4.60632 2.90717 4.38233 3.04607C4.15834 3.18497 3.97754 3.3836 3.86025 3.61962Z" stroke="#A855F7" stroke-width="1.41667" stroke-linecap="round" stroke-linejoin="round"/>
<path d="M4.25 11.3334H4.25708" stroke="#A855F7" stroke-width="1.41667" stroke-linecap="round" stroke-linejoin="round"/>
<path d="M7.0835 11.3334H7.09058" stroke="#A855F7" stroke-width="1.41667" stroke-linecap="round" stroke-linejoin="round"/>
</g>
<defs>
<clipPath id="clip0_19_1322">
<rect width="17" height="17" fill="white"/>
</clipPath>
</defs>
</svg>
