<svg width="20" height="20" viewBox="0 0 20 20" fill="none" xmlns="http://www.w3.org/2000/svg">
<path d="M16.6668 10.8334C16.6668 15 13.7502 17.0834 10.2835 18.2917C10.102 18.3532 9.90478 18.3503 9.72516 18.2834C6.25016 17.0834 3.3335 15 3.3335 10.8334V5.00003C3.3335 4.77902 3.42129 4.56705 3.57757 4.41077C3.73385 4.25449 3.94582 4.1667 4.16683 4.1667C5.8335 4.1667 7.91683 3.1667 9.36683 1.90003C9.54337 1.74919 9.76796 1.66632 10.0002 1.66632C10.2324 1.66632 10.457 1.74919 10.6335 1.90003C12.0918 3.17503 14.1668 4.1667 15.8335 4.1667C16.0545 4.1667 16.2665 4.25449 16.4228 4.41077C16.579 4.56705 16.6668 4.77902 16.6668 5.00003V10.8334Z" stroke="#A855F7" stroke-width="1.66667" stroke-linecap="round" stroke-linejoin="round"/>
</svg>
