<svg width="14" height="14" viewBox="0 0 14 14" fill="none" xmlns="http://www.w3.org/2000/svg">
<g clip-path="url(#clip0_19_1182)">
<path d="M4.6665 8.16663C6.5995 8.16663 8.1665 6.59962 8.1665 4.66663C8.1665 2.73363 6.5995 1.16663 4.6665 1.16663C2.73351 1.16663 1.1665 2.73363 1.1665 4.66663C1.1665 6.59962 2.73351 8.16663 4.6665 8.16663Z" stroke="#F59E0B" stroke-width="1.16667" stroke-linecap="round" stroke-linejoin="round"/>
<path d="M10.5526 6.04919C11.104 6.25478 11.5947 6.59609 11.9793 7.04156C12.3638 7.48703 12.6299 8.02229 12.7528 8.59782C12.8756 9.17335 12.8514 9.77058 12.6823 10.3343C12.5133 10.898 12.2048 11.4099 11.7854 11.8228C11.366 12.2357 10.8493 12.5361 10.2831 12.6964C9.7168 12.8567 9.11926 12.8716 8.54572 12.7397C7.97218 12.6079 7.44114 12.3335 7.00172 11.942C6.5623 11.5506 6.22869 11.0546 6.03174 10.5" stroke="#F59E0B" stroke-width="1.16667" stroke-linecap="round" stroke-linejoin="round"/>
<path d="M4.0835 3.5H4.66683V5.83333" stroke="#F59E0B" stroke-width="1.16667" stroke-linecap="round" stroke-linejoin="round"/>
<path d="M9.74741 8.09668L10.1557 8.51085L8.51074 10.1558" stroke="#F59E0B" stroke-width="1.16667" stroke-linecap="round" stroke-linejoin="round"/>
</g>
<defs>
<clipPath id="clip0_19_1182">
<rect width="14" height="14" fill="white"/>
</clipPath>
</defs>
</svg>
