<svg width="13" height="13" viewBox="0 0 13 13" fill="none" xmlns="http://www.w3.org/2000/svg">
<g clip-path="url(#clip0_19_884)">
<path d="M6.94934 1.18082C6.8082 1.11645 6.65488 1.08313 6.49976 1.08313C6.34463 1.08313 6.19131 1.11645 6.05017 1.18082L1.40809 3.29332C1.31197 3.33571 1.23025 3.40512 1.17288 3.49312C1.11551 3.58112 1.08496 3.6839 1.08496 3.78895C1.08496 3.894 1.11551 3.99678 1.17288 4.08478C1.23025 4.17277 1.31197 4.24219 1.40809 4.28457L6.05559 6.40249C6.19673 6.46687 6.35005 6.50018 6.50517 6.50018C6.6603 6.50018 6.81362 6.46687 6.95476 6.40249L11.6023 4.28999C11.6984 4.24761 11.7801 4.17819 11.8375 4.09019C11.8948 4.00219 11.9254 3.89941 11.9254 3.79437C11.9254 3.68932 11.8948 3.58654 11.8375 3.49854C11.7801 3.41054 11.6984 3.34112 11.6023 3.29874L6.94934 1.18082Z" stroke="#67E8F9" stroke-width="1.08333" stroke-linecap="round" stroke-linejoin="round"/>
<path d="M1.0835 6.5C1.08324 6.6036 1.1127 6.70511 1.16839 6.79247C1.22407 6.87984 1.30364 6.9494 1.39766 6.99292L6.056 9.11083C6.1964 9.17441 6.34875 9.2073 6.50287 9.2073C6.657 9.2073 6.80935 9.17441 6.94975 9.11083L11.5972 6.99833C11.6931 6.95524 11.7744 6.88518 11.8311 6.79669C11.8879 6.7082 11.9177 6.60512 11.9168 6.5" stroke="#67E8F9" stroke-width="1.08333" stroke-linecap="round" stroke-linejoin="round"/>
<path d="M1.0835 9.20834C1.08324 9.31195 1.1127 9.41345 1.16839 9.50082C1.22407 9.58818 1.30364 9.65775 1.39766 9.70126L6.056 11.8192C6.1964 11.8828 6.34875 11.9156 6.50287 11.9156C6.657 11.9156 6.80935 11.8828 6.94975 11.8192L11.5972 9.70668C11.6931 9.66358 11.7744 9.59352 11.8311 9.50503C11.8879 9.41655 11.9177 9.31346 11.9168 9.20834" stroke="#67E8F9" stroke-width="1.08333" stroke-linecap="round" stroke-linejoin="round"/>
</g>
<defs>
<clipPath id="clip0_19_884">
<rect width="13" height="13" fill="white"/>
</clipPath>
</defs>
</svg>
